<svg width="142" height="108" viewBox="0 0 142 108" fill="none" xmlns="http://www.w3.org/2000/svg">
<path d="M40.5131 11.4469C40.5131 12.1549 40.0331 12.5509 39.2171 12.5509H37.5251V10.2949H39.1811C39.9971 10.2949 40.5131 10.7269 40.5131 11.4469ZM40.3091 7.95495C40.3091 8.63894 39.8531 8.99894 39.0611 8.99894H37.5251V6.89894H39.0611C39.8531 6.89894 40.3091 7.28294 40.3091 7.95495ZM42.2171 11.6509C42.2171 10.6669 41.5451 9.79095 40.5971 9.62295C41.4131 9.35895 42.0251 8.72294 42.0251 7.70295C42.0251 6.45494 41.0531 5.54295 39.3011 5.54295H35.8451V13.9189H39.4571C41.1971 13.9189 42.2171 12.9829 42.2171 11.6509ZM50.176 10.5949C50.176 8.49495 48.676 7.16295 46.756 7.16295C44.836 7.16295 43.336 8.49495 43.336 10.5949C43.336 12.6829 44.788 14.0269 46.708 14.0269C48.64 14.0269 50.176 12.6829 50.176 10.5949ZM45.04 10.5949C45.04 9.26295 45.844 8.62695 46.732 8.62695C47.62 8.62695 48.448 9.26295 48.448 10.5949C48.448 11.9149 47.596 12.5629 46.708 12.5629C45.808 12.5629 45.04 11.9149 45.04 10.5949ZM53.2884 10.6069C53.2884 9.32295 53.8884 8.93895 54.8844 8.93895H55.3284V7.17494C54.4044 7.17494 53.7084 7.61894 53.2884 8.30295V7.27095H51.6084V13.9189H53.2884V10.6069ZM61.3159 13.9189H62.9959V10.0189C62.9959 8.18295 61.8919 7.17494 60.3439 7.17494C59.4919 7.17494 58.7719 7.53495 58.3399 8.09895V7.27095H56.6599V13.9189H58.3399V10.2469C58.3399 9.17895 58.9279 8.60295 59.8399 8.60295C60.7279 8.60295 61.3159 9.17895 61.3159 10.2469V13.9189ZM71.7169 5.43495C69.2929 5.43495 67.4449 7.21095 67.4449 9.71895C67.4449 12.2269 69.2929 13.9909 71.7289 13.9909C73.9609 13.9909 75.4849 12.4309 75.8209 10.7269V9.26295H71.2849V10.5469H74.1649C73.9129 11.7349 73.0849 12.4789 71.7889 12.4789C70.2289 12.4789 69.1729 11.4229 69.1729 9.71895C69.1729 8.05095 70.2169 6.98295 71.7169 6.98295C72.6049 6.98295 73.3009 7.35494 73.6849 8.06294H75.6169C75.0769 6.38295 73.5889 5.43495 71.7169 5.43495ZM77.2638 13.9189H78.9438V5.03895H77.2638V13.9189ZM87.2237 10.5949C87.2237 8.49495 85.7237 7.16295 83.8037 7.16295C81.8837 7.16295 80.3837 8.49495 80.3837 10.5949C80.3837 12.6829 81.8357 14.0269 83.7557 14.0269C85.6877 14.0269 87.2237 12.6829 87.2237 10.5949ZM82.0877 10.5949C82.0877 9.26295 82.8917 8.62695 83.7797 8.62695C84.6677 8.62695 85.4957 9.26295 85.4957 10.5949C85.4957 11.9149 84.6437 12.5629 83.7557 12.5629C82.8557 12.5629 82.0877 11.9149 82.0877 10.5949ZM90.336 8.24295V5.03895H88.656V13.9189H90.336V12.9709C90.744 13.5469 91.488 14.0269 92.532 14.0269C94.236 14.0269 95.568 12.6469 95.568 10.5709C95.568 8.49495 94.236 7.16295 92.532 7.16295C91.524 7.16295 90.744 7.63094 90.336 8.24295ZM93.852 10.5709C93.852 11.8309 93 12.5509 92.088 12.5509C91.188 12.5509 90.336 11.8549 90.336 10.5949C90.336 9.33494 91.188 8.63894 92.088 8.63894C93 8.63894 93.852 9.31095 93.852 10.5709ZM96.5568 10.5709C96.5568 12.6469 97.9008 14.0269 99.5808 14.0269C100.637 14.0269 101.393 13.5229 101.789 12.9469V13.9189H103.481V7.27095H101.789V8.21895C101.393 7.66694 100.661 7.16295 99.5928 7.16295C97.9008 7.16295 96.5568 8.49495 96.5568 10.5709ZM101.789 10.5949C101.789 11.8549 100.949 12.5509 100.025 12.5509C99.1248 12.5509 98.2728 11.8309 98.2728 10.5709C98.2728 9.31095 99.1248 8.63894 100.025 8.63894C100.949 8.63894 101.789 9.33494 101.789 10.5949ZM105.322 13.9189H107.002V5.03895H105.322V13.9189ZM38.6902 27.7189C38.6902 30.2269 40.5262 31.9909 42.9382 31.9909C44.7982 31.9909 46.3102 31.0069 46.8742 29.2789H44.9422C44.5462 30.0949 43.8262 30.4909 42.9262 30.4909C41.4622 30.4909 40.4182 29.4109 40.4182 27.7189C40.4182 26.0149 41.4622 24.9469 42.9262 24.9469C43.8262 24.9469 44.5462 25.3429 44.9422 26.1469H46.8742C46.3102 24.4309 44.7982 23.4349 42.9382 23.4349C40.5262 23.4349 38.6902 25.2109 38.6902 27.7189ZM48.5092 31.9189H50.1892V28.2469C50.1892 27.1789 50.7772 26.6029 51.6892 26.6029C52.5772 26.6029 53.1652 27.1789 53.1652 28.2469V31.9189H54.8452V28.0189C54.8452 26.1829 53.7532 25.1749 52.2532 25.1749C51.3652 25.1749 50.6212 25.5349 50.1892 26.0989V23.0389H48.5092V31.9189ZM56.2107 28.5709C56.2107 30.6469 57.5547 32.0269 59.2347 32.0269C60.2907 32.0269 61.0467 31.5229 61.4427 30.9469V31.9189H63.1347V25.2709H61.4427V26.2189C61.0467 25.6669 60.3147 25.1629 59.2467 25.1629C57.5547 25.1629 56.2107 26.4949 56.2107 28.5709ZM61.4427 28.5949C61.4427 29.8549 60.6027 30.5509 59.6787 30.5509C58.7787 30.5509 57.9267 29.8309 57.9267 28.5709C57.9267 27.3109 58.7787 26.6389 59.6787 26.6389C60.6027 26.6389 61.4427 27.3349 61.4427 28.5949ZM74.2756 31.9189H75.9556V28.0189C75.9556 26.1829 74.8276 25.1749 73.2316 25.1749C72.2596 25.1749 71.3836 25.6909 70.9516 26.4469C70.4956 25.6189 69.6436 25.1749 68.6116 25.1749C67.7836 25.1749 67.0756 25.5229 66.6556 26.0749V25.2709H64.9756V31.9189H66.6556V28.2469C66.6556 27.1909 67.2436 26.6389 68.1556 26.6389C69.0436 26.6389 69.6316 27.1909 69.6316 28.2469V31.9189H71.3116V28.2469C71.3116 27.1909 71.8996 26.6389 72.7996 26.6389C73.6876 26.6389 74.2756 27.1909 74.2756 28.2469V31.9189ZM79.4298 26.2309V25.2709H77.7498V35.0869H79.4298V30.9709C79.8378 31.5109 80.5818 32.0269 81.6258 32.0269C83.3298 32.0269 84.6618 30.6469 84.6618 28.5709C84.6618 26.4949 83.3298 25.1629 81.6258 25.1629C80.5938 25.1629 79.8258 25.6669 79.4298 26.2309ZM82.9458 28.5709C82.9458 29.8309 82.0938 30.5509 81.1818 30.5509C80.2818 30.5509 79.4298 29.8549 79.4298 28.5949C79.4298 27.3349 80.2818 26.6389 81.1818 26.6389C82.0938 26.6389 82.9458 27.3109 82.9458 28.5709ZM86.0826 31.9189H87.7626V25.2709H86.0826V31.9189ZM86.9346 24.4789C87.5226 24.4789 87.9666 24.0469 87.9666 23.4949C87.9666 22.9429 87.5226 22.5109 86.9346 22.5109C86.3346 22.5109 85.9026 22.9429 85.9026 23.4949C85.9026 24.0469 86.3346 24.4789 86.9346 24.4789ZM96.0424 28.5949C96.0424 26.4949 94.5424 25.1629 92.6224 25.1629C90.7024 25.1629 89.2024 26.4949 89.2024 28.5949C89.2024 30.6829 90.6544 32.0269 92.5744 32.0269C94.5064 32.0269 96.0424 30.6829 96.0424 28.5949ZM90.9064 28.5949C90.9064 27.2629 91.7104 26.6269 92.5984 26.6269C93.4864 26.6269 94.3144 27.2629 94.3144 28.5949C94.3144 29.9149 93.4624 30.5629 92.5744 30.5629C91.6744 30.5629 90.9064 29.9149 90.9064 28.5949ZM102.131 31.9189H103.811V28.0189C103.811 26.1829 102.707 25.1749 101.159 25.1749C100.307 25.1749 99.5868 25.5349 99.1548 26.0989V25.2709H97.4748V31.9189H99.1548V28.2469C99.1548 27.1789 99.7428 26.6029 100.655 26.6029C101.543 26.6029 102.131 27.1789 102.131 28.2469V31.9189Z" fill="#1C1C1C"/>
<path d="M33.6656 48.6015V45.6615H32.7556V53.0615H33.6656V52.0515C34.0056 52.6515 34.7156 53.1515 35.7156 53.1515C37.1856 53.1515 38.3156 52.0015 38.3156 50.3015C38.3156 48.5915 37.1956 47.4915 35.7156 47.4915C34.7456 47.4915 34.0156 47.9915 33.6656 48.6015ZM37.3856 50.3015C37.3856 51.5915 36.5356 52.3515 35.5256 52.3515C34.5356 52.3515 33.6656 51.6015 33.6656 50.3115C33.6656 49.0415 34.5356 48.2815 35.5256 48.2815C36.5356 48.2815 37.3856 49.0115 37.3856 50.3015ZM41.7935 52.0215L40.0735 47.5815H39.0635L41.2735 53.0015L40.1935 55.6415H41.1335L44.4335 47.5815H43.4935L41.7935 52.0215ZM49.8242 53.0715L50.8342 53.0615L52.5142 47.4515L54.1342 53.0615H55.1542L57.1742 46.0915H56.1942L54.6642 51.9815L53.0642 46.0915H52.0442L50.3642 52.0015L48.8442 46.0915H47.8742L49.8242 53.0715ZM62.1501 53.0615H63.3401L60.1501 49.5815L63.3101 46.0915H62.1601L59.2801 49.3215V46.0915H58.3701V53.0615H59.2801V49.8815L62.1501 53.0615ZM71.2164 49.5715C71.2164 47.4815 69.6864 46.0115 67.7164 46.0115C65.7564 46.0115 64.2164 47.4815 64.2164 49.5715C64.2164 51.6615 65.7564 53.1315 67.7164 53.1315C69.6864 53.1315 71.2164 51.6615 71.2164 49.5715ZM65.1464 49.5715C65.1464 47.8615 66.2464 46.8015 67.7164 46.8015C69.1864 46.8015 70.2864 47.8615 70.2864 49.5715C70.2864 51.2715 69.1864 52.3415 67.7164 52.3415C66.2464 52.3415 65.1464 51.2715 65.1464 49.5715ZM80.1638 53.0615H81.1238L78.6138 46.1315H77.5638L75.0438 53.0615H76.0038L76.5638 51.5115H79.6038L80.1638 53.0615ZM79.3438 50.7715H76.8238L78.0838 47.2515L79.3438 50.7715ZM87.2821 47.5815H86.3721V50.5915C86.3721 51.7715 85.7421 52.3515 84.8021 52.3515C83.8821 52.3515 83.2721 51.7815 83.2721 50.6715V47.5815H82.3721V50.7915C82.3721 52.3615 83.3621 53.1415 84.6221 53.1415C85.3521 53.1415 86.0221 52.8215 86.3721 52.2515V53.0615H87.2821V47.5815ZM92.9585 51.5715C92.9185 49.6115 89.7385 50.3215 89.7385 49.0215C89.7385 48.5815 90.1385 48.2615 90.8085 48.2615C91.5385 48.2615 91.9585 48.6615 91.9985 49.2115H92.9085C92.8485 48.1415 92.0485 47.4915 90.8385 47.4915C89.6185 47.4915 88.8285 48.1815 88.8285 49.0215C88.8285 51.0615 92.0685 50.3515 92.0685 51.5715C92.0685 52.0215 91.6685 52.3815 90.9485 52.3815C90.1785 52.3815 89.7085 51.9815 89.6585 51.4515H88.7185C88.7785 52.4515 89.6785 53.1515 90.9585 53.1515C92.1685 53.1515 92.9585 52.4715 92.9585 51.5715ZM94.6431 51.5615C94.6431 52.6615 95.1931 53.0615 96.1631 53.0615H96.9831V52.2915H96.3131C95.7531 52.2915 95.5531 52.1015 95.5531 51.5615V48.3315H96.9831V47.5815H95.5531V46.2015H94.6431V47.5815H93.9331V48.3315H94.6431V51.5615ZM99.1957 50.0815C99.1957 48.8115 99.8557 48.4215 100.726 48.4215H100.966V47.4815C100.096 47.4815 99.5057 47.8615 99.1957 48.4715V47.5815H98.2857V53.0615H99.1957V50.0815ZM102.216 53.0615H103.126V47.5815H102.216V53.0615ZM102.686 46.6915C103.016 46.6915 103.286 46.4215 103.286 46.0715C103.286 45.7215 103.016 45.4515 102.686 45.4515C102.336 45.4515 102.066 45.7215 102.066 46.0715C102.066 46.4215 102.336 46.6915 102.686 46.6915ZM104.537 50.3015C104.537 52.0015 105.667 53.1515 107.127 53.1515C108.137 53.1515 108.847 52.6315 109.177 52.0415V53.0615H110.097V47.5815H109.177V48.5815C108.857 48.0115 108.157 47.4915 107.137 47.4915C105.667 47.4915 104.537 48.5915 104.537 50.3015ZM109.177 50.3115C109.177 51.6015 108.317 52.3515 107.317 52.3515C106.317 52.3515 105.467 51.5915 105.467 50.3015C105.467 49.0115 106.317 48.2815 107.317 48.2815C108.317 48.2815 109.177 49.0415 109.177 50.3115Z" fill="#1C1C1C"/>
<path d="M12.4624 20.7378C1.32411 45.7456 7.04208 69.5093 32.2872 83.8463C35.7518 85.8146 39.315 87.5078 42.8172 89.0279C52.5687 93.2574 62.4304 96.3857 69.7858 100.2C73.5 102.118 76.5585 104.137 79.1036 107.201L79.6285 106.856C77.0028 103.704 73.8609 101.643 70.0878 99.7051C62.6697 95.8802 52.8053 92.7783 43.0429 88.5694C39.5483 87.0617 35.9981 85.383 32.5505 83.4343C7.50377 69.2797 1.73838 45.7171 12.7873 20.8278L12.4624 20.7378Z" fill="#385173"/>
<path d="M51.8726 82.5345C52.8635 83.143 54.4535 84.0696 56.1057 85.3337C61.5669 89.521 61.7396 92.3902 61.0904 94.8708C57.3244 92.1957 52.3348 91.1391 51.8726 82.5345Z" fill="#385173"/>
<path d="M42.8773 79.1438C47.3911 82.2342 52.4697 86.1202 51.4488 91.1934C50.8895 90.8588 49.5328 90.1382 48.1227 89.1816C46.712 88.2255 45.2555 87.0263 44.487 85.7647C43.3837 83.9684 42.7874 81.6711 42.8773 79.1438Z" fill="#385173"/>
<path d="M34.6559 75.2184C39.1763 79.0303 42.8595 82.9292 41.9612 87.3477C37.4991 84.6419 33.4605 81.6651 34.6559 75.2184Z" fill="#385173"/>
<path d="M27.4886 70.4731C31.6225 75.2446 33.8236 79.2015 32.8724 82.8684C28.0555 79.5376 25.4271 75.6367 27.4886 70.4731Z" fill="#385173"/>
<path d="M21.6801 64.7246C23.759 68.3535 25.9993 73.5279 24.5374 77.3738C19.4283 72.5633 19.2485 68.1624 21.6801 64.7246Z" fill="#385173"/>
<path d="M17.439 57.8883C18.57 61.7548 19.5501 67.039 17.4826 70.5884C14.4502 66.3149 13.504 61.4502 17.439 57.8883Z" fill="#385173"/>
<path d="M14.8128 50.076C15.2739 53.8079 14.9305 59.3761 12.2689 62.5289C9.64432 55.7957 12.0187 51.7752 14.8128 50.076Z" fill="#385173"/>
<path d="M13.8947 41.777C13.8543 42.592 13.687 43.8062 13.4052 45.1363C12.7664 48.125 11.5355 51.4267 9.13225 53.5688C7.94451 46.5473 10.7904 43.0341 13.8947 41.777Z" fill="#385173"/>
<path d="M14.6308 33.2352C14.1276 35.8505 12.1408 41.2616 8.02051 44.1864C8.1933 37.0256 11.605 33.9853 14.6308 33.2352Z" fill="#385173"/>
<path d="M16.8471 24.7039C15.7384 28.1543 13.0337 32.2697 8.81689 34.745C9.82421 30.3145 11.8999 25.309 16.8471 24.7039Z" fill="#385173"/>
<path d="M20.3455 16.3825C18.8624 19.8028 15.9609 23.1781 11.2688 25.5183C12.1268 23.3681 14.5922 16.4525 20.3455 16.3825Z" fill="#385173"/>
<path d="M21.1725 6.19655C19.9449 9.76189 16.7321 17.5676 13.2594 19.4978C13.0038 16.0275 15.0359 10.882 21.1725 6.19655Z" fill="#385173"/>
<path d="M43.3035 99.1625C44.5528 99.4616 46.495 99.9386 48.6808 100.165C55.7244 100.902 58.1168 98.8605 59.5874 96.8303C58.6924 96.6953 53.4001 95.1966 50.1073 95.9207C47.8244 96.4238 45.5667 97.5599 43.3035 99.1625Z" fill="#385173"/>
<path d="M32.3701 93.8499C33.6135 94.271 35.5545 94.9301 37.7747 95.3216C39.9953 95.7182 42.4875 95.8522 44.8401 95.3376C46.3402 95.0116 47.711 94.229 48.9811 92.6172C48.4965 92.5397 46.9714 92.1097 45.1579 91.7496C43.3438 91.3911 41.2414 91.091 39.5783 91.3195C37.2481 91.6441 34.8606 92.5397 32.3701 93.8499Z" fill="#385173"/>
<path d="M21.6753 87.1441C22.8543 87.7632 24.7066 88.7133 26.8951 89.4064C33.5855 91.5407 36.5949 89.931 38.4656 88.0412C37.4894 87.8132 32.4707 85.8144 29.3245 85.8129C26.9599 85.8189 24.4247 86.3225 21.6753 87.1441Z" fill="#385173"/>
<path d="M12.0955 78.4386C13.0913 79.3122 14.7053 80.6293 16.7265 81.7524C22.6516 85.0526 26.132 84.1245 28.4508 82.4944C24.1506 80.7833 22.6549 78.0251 12.0955 78.4386Z" fill="#385173"/>
<path d="M4.90234 67.6998C8.11399 72.6379 13.6978 77.7589 19.5466 75.4602C14.9079 72.3143 15.1647 70.1136 4.90234 67.6998Z" fill="#385173"/>
<path d="M0.955078 55.8802C1.32519 57.0109 1.95586 58.7801 3.04003 60.6103C6.22769 66.0114 9.61487 67.0196 12.6286 66.7215C9.157 62.793 10.2602 60.7108 0.955078 55.8802Z" fill="#385173"/>
<path d="M0.0183105 43.7821C0.457105 49.3303 2.36166 55.6622 8.34016 56.6858C6.20615 52.3172 7.68494 50.495 0.0183105 43.7821Z" fill="#385173"/>
<path d="M1.77133 32.0194C0.977685 37.435 1.33364 43.6496 6.6744 46.0428C5.77446 41.2508 7.37864 39.6732 1.77133 32.0194Z" fill="#385173"/>
<path d="M5.66711 20.963C3.88577 26.0236 3.02235 31.9292 7.4659 35.3396C7.68829 30.8241 9.52415 29.2589 5.66711 20.963Z" fill="#385173"/>
<path d="M11.2416 10.7314C8.6688 15.387 6.84169 20.8377 10.3526 24.9783C11.397 20.5077 13.4961 19.6726 11.2416 10.7314Z" fill="#385173"/>
<path d="M129.697 20.9384C141.841 48.0168 134.946 73.3496 99.7274 88.7368C96.2361 90.261 92.7988 91.6156 89.5338 92.8878C77.1342 97.7118 68.428 100.971 63.3931 107.071L63.9186 107.416C69.1623 101.04 79.5827 97.3573 89.7649 93.3704C93.0294 92.0902 96.4711 90.725 99.9722 89.1874C134.913 73.8277 142.528 48.4629 129.991 20.7934L129.697 20.9384Z" fill="#385173"/>
<path d="M98.8939 99.3652C97.6468 99.6602 95.709 100.131 93.5276 100.355C91.3429 100.581 88.9232 100.562 86.6404 99.9393C85.184 99.5417 83.8567 98.7036 82.6313 97.0204C83.1214 96.9474 84.6705 96.5288 86.5107 96.2328C88.3498 95.9352 90.4768 95.7502 92.1044 96.1092C94.3856 96.6143 96.6373 97.7565 98.8939 99.3652Z" fill="#385173"/>
<path d="M108.612 94.602C104.8 95.8502 100.479 96.7849 96.4578 95.9047C94.9081 95.5672 93.4206 94.7746 92.1821 93.2033C92.8368 93.0643 94.3472 92.6547 96.092 92.3331C99.1838 91.7635 102.942 91.2585 108.612 94.602Z" fill="#385173"/>
<path d="M118.196 88.8209C112.968 91.3555 105.607 93.2036 101.703 89.168C102.809 88.8304 105.685 87.8594 108.09 87.4619C111.42 86.8713 115.214 87.5714 118.196 88.8209Z" fill="#385173"/>
<path d="M127.075 81.5752C122.573 84.9558 115.317 87.8003 110.908 84.4637C113.993 83.1275 119.825 79.952 127.075 81.5752Z" fill="#385173"/>
<path d="M134.378 72.658C130.879 76.9053 124.403 81.0195 119.388 78.6743C122.054 76.9127 127.516 72.6125 134.378 72.658Z" fill="#385173"/>
<path d="M139.278 62.4807C137.239 67.1947 131.93 72.4828 126.577 71.5297C128.654 69.349 133.118 63.7503 139.278 62.4807Z" fill="#385173"/>
<path d="M141.601 51.8665C140.996 55.5755 137.644 62.4984 131.839 63.0914C133.305 60.3896 136.183 54.1178 141.601 51.8665Z" fill="#385173"/>
<path d="M141.612 41.2035C141.869 45.9196 139.661 51.9984 134.908 53.8171C135.6 51.2853 136.941 44.1604 141.612 41.2035Z" fill="#385173"/>
<path d="M139.584 30.9248C140.734 35.2152 139.971 41.2708 135.866 44.1896C136.008 41.9159 135.561 34.4802 139.584 30.9248Z" fill="#385173"/>
<path d="M135.911 21.2481C137.693 24.9236 138.184 30.6943 134.87 34.5897C134.412 31.5944 132.695 25.0286 135.911 21.2481Z" fill="#385173"/>
<path d="M130.917 12.2423C133.082 15.2577 134.646 20.3433 132.193 25.2839C131.239 22.4236 128.317 16.2778 130.917 12.2423Z" fill="#385173"/>
<path d="M121.062 6.52151C127.085 10.1267 129.892 17.0272 129.287 19.5574C124.512 15.9521 121.961 8.46663 121.062 6.52151Z" fill="#385173"/>
<path d="M91.2822 82.3482C86.1251 85.5356 80.6857 89.2627 82.0882 94.6794C85.8728 91.9806 90.8505 90.9479 91.2822 82.3482Z" fill="#385173"/>
<path d="M101.18 78.3943C95.9816 82.1502 91.6891 85.5476 92.7547 90.5818C93.145 90.3138 94.5208 89.5897 95.986 88.594C99.1491 86.4473 101.327 84.1595 101.18 78.3943Z" fill="#385173"/>
<path d="M110.025 73.7305C105.6 77.9829 102.011 81.3427 103.186 86.1841C103.553 85.9061 104.844 85.129 106.187 84.0649C109.066 81.7937 111.001 79.208 110.025 73.7305Z" fill="#385173"/>
<path d="M117.389 68.0176C113.601 73.5826 111.524 76.6499 113.023 80.8854C115.487 78.4471 120.507 75.5913 117.389 68.0176Z" fill="#385173"/>
<path d="M122.905 61.0673C120.469 67.7045 119.7 70.6238 121.7 74.1976C121.815 74.0191 122.104 73.6686 122.475 73.2006C122.829 72.718 123.281 72.129 123.679 71.4464C125.581 68.3201 125.979 65.2757 122.905 61.0673Z" fill="#385173"/>
<path d="M126.421 52.8283C126.094 56.2572 125.134 61.3514 127.603 64.8378C127.843 65.1788 128.121 65.5304 128.443 65.8949C128.623 65.4043 130.759 61.3448 129.958 58.2839C129.462 56.3712 128.219 54.5065 126.421 52.8283Z" fill="#385173"/>
<path d="M127.876 43.8388C128.482 49.7228 128.972 53.4571 132.695 56.2783C132.717 56.0778 132.793 55.6613 132.891 55.1102C132.946 54.8352 132.978 54.5217 133.022 54.1867C133.038 54.0191 133.06 53.8451 133.082 53.6666C133.098 53.4881 133.104 53.3031 133.115 53.1161C133.207 51.6165 133.06 49.8828 132.422 48.6137C131.534 46.8321 129.953 45.2085 127.876 43.8388Z" fill="#385173"/>
<path d="M127.26 34.5046C127.664 35.8648 128.999 41.0949 131.512 43.8277C131.741 44.0802 131.997 44.3283 132.286 44.5713C132.869 45.0589 133.556 45.5274 134.439 45.986C134.052 42.8626 134.913 38.1795 127.26 34.5046Z" fill="#385173"/>
<path d="M124.79 25.1486C127.112 30.0142 129.02 33.8646 133.806 35.5498C132.787 32.4694 132.841 28.0239 124.79 25.1486Z" fill="#385173"/>
<path d="M120.751 16.0779C123.825 20.8635 126.267 24.2239 131.108 25.359C129.57 22.2286 128.846 18.1431 120.751 16.0779Z" fill="#385173"/>
</svg>
