<svg width="143" height="108" viewBox="0 0 143 108" fill="none" xmlns="http://www.w3.org/2000/svg">
<path d="M50.5239 13.9189H52.6479L49.0959 9.69494L52.5519 5.54295H50.5239L47.4759 9.29895V5.54295H45.7959V13.9189H47.4759V10.1869L50.5239 13.9189ZM53.9529 13.9189H55.6329V8.47095L57.8889 13.9189H59.1609L61.4049 8.47095V13.9189H63.0849V5.54295H61.1889L58.5249 11.7709L55.8609 5.54295H53.9529V13.9189ZM64.9219 10.7149C64.9219 12.9229 66.4339 14.0029 68.2699 14.0029C70.1059 14.0029 71.6899 12.9229 71.6899 10.7149V5.54295H69.9979V10.7269C69.9979 11.8789 69.3739 12.4789 68.2939 12.4789C67.2259 12.4789 66.6019 11.8789 66.6019 10.7269V5.54295H64.9219V10.7149ZM76.1404 10.5709C76.1404 12.6469 77.4844 14.0269 79.1764 14.0269C80.2204 14.0269 80.9644 13.5469 81.3604 12.9349V13.9189H83.0644V5.03895H81.3604V8.19494C80.9044 7.57094 80.0644 7.16295 79.1884 7.16295C77.4844 7.16295 76.1404 8.49495 76.1404 10.5709ZM81.3724 10.5949C81.3724 11.8549 80.5324 12.5509 79.6084 12.5509C78.7084 12.5509 77.8564 11.8309 77.8564 10.5709C77.8564 9.31095 78.7084 8.63894 79.6084 8.63894C80.5324 8.63894 81.3724 9.33494 81.3724 10.5949ZM87.7612 8.54295C88.6252 8.54295 89.3212 9.09495 89.3452 9.97095H86.1892C86.3212 9.05894 86.9572 8.54295 87.7612 8.54295ZM90.9172 11.8309H89.1052C88.8892 12.2749 88.4932 12.6349 87.7732 12.6349C86.9332 12.6349 86.2612 12.0829 86.1772 11.0989H91.0372C91.0732 10.8829 91.0852 10.6669 91.0852 10.4509C91.0852 8.47095 89.7292 7.16295 87.8092 7.16295C85.8412 7.16295 84.4732 8.49495 84.4732 10.5949C84.4732 12.6829 85.8772 14.0269 87.8092 14.0269C89.4532 14.0269 90.5572 13.0549 90.9172 11.8309ZM97.6715 12.0229C97.6235 9.58694 93.9395 10.3429 93.9395 9.13095C93.9395 8.74695 94.2635 8.49495 94.8875 8.49495C95.5475 8.49495 95.9555 8.84295 96.0035 9.35895H97.6115C97.5155 8.03895 96.5435 7.16295 94.9355 7.16295C93.2915 7.16295 92.3075 8.05095 92.3075 9.15495C92.3075 11.5909 96.0635 10.8349 96.0635 12.0229C96.0635 12.4069 95.7035 12.7069 95.0435 12.7069C94.3715 12.7069 93.9035 12.3229 93.8435 11.8189H92.1515C92.2235 13.0549 93.3875 14.0269 95.0555 14.0269C96.6755 14.0269 97.6715 13.1629 97.6715 12.0229ZM54.2617 29.4229C54.2617 30.0829 53.9497 30.5029 53.3257 30.5029C52.6897 30.5029 52.3657 30.0709 52.3537 29.3629H50.6737C50.6737 31.0549 51.7777 32.0029 53.3497 32.0029C54.8977 32.0029 55.9537 31.0789 55.9537 29.4229V23.5429H54.2617V29.4229ZM57.6814 28.5709C57.6814 30.6469 59.0254 32.0269 60.7054 32.0269C61.7614 32.0269 62.5174 31.5229 62.9134 30.9469V31.9189H64.6054V25.2709H62.9134V26.2189C62.5174 25.6669 61.7854 25.1629 60.7174 25.1629C59.0254 25.1629 57.6814 26.4949 57.6814 28.5709ZM62.9134 28.5949C62.9134 29.8549 62.0734 30.5509 61.1494 30.5509C60.2494 30.5509 59.3974 29.8309 59.3974 28.5709C59.3974 27.3109 60.2494 26.6389 61.1494 26.6389C62.0734 26.6389 62.9134 27.3349 62.9134 28.5949ZM66.4463 31.9189H68.1263V28.2469C68.1263 27.1789 68.7143 26.6029 69.6263 26.6029C70.5143 26.6029 71.1023 27.1789 71.1023 28.2469V31.9189H72.7823V28.0189C72.7823 26.1829 71.6903 25.1749 70.1903 25.1749C69.3023 25.1749 68.5583 25.5349 68.1263 26.0989V23.0389H66.4463V31.9189ZM76.2599 28.6069C76.2599 27.3229 76.8599 26.9389 77.8559 26.9389H78.2999V25.1749C77.3759 25.1749 76.6799 25.6189 76.2599 26.3029V25.2709H74.5799V31.9189H76.2599V28.6069ZM82.4874 26.5429C83.3514 26.5429 84.0474 27.0949 84.0714 27.9709H80.9154C81.0474 27.0589 81.6834 26.5429 82.4874 26.5429ZM85.6434 29.8309H83.8314C83.6154 30.2749 83.2194 30.6349 82.4994 30.6349C81.6594 30.6349 80.9874 30.0829 80.9034 29.0989H85.7634C85.7994 28.8829 85.8114 28.6669 85.8114 28.4509C85.8114 26.4709 84.4554 25.1629 82.5354 25.1629C80.5674 25.1629 79.1994 26.4949 79.1994 28.5949C79.1994 30.6829 80.6034 32.0269 82.5354 32.0269C84.1794 32.0269 85.2834 31.0549 85.6434 29.8309ZM92.3977 30.0229C92.3497 27.5869 88.6657 28.3429 88.6657 27.1309C88.6657 26.7469 88.9897 26.4949 89.6137 26.4949C90.2737 26.4949 90.6817 26.8429 90.7297 27.3589H92.3377C92.2417 26.0389 91.2697 25.1629 89.6617 25.1629C88.0177 25.1629 87.0337 26.0509 87.0337 27.1549C87.0337 29.5909 90.7897 28.8349 90.7897 30.0229C90.7897 30.4069 90.4297 30.7069 89.7697 30.7069C89.0977 30.7069 88.6297 30.3229 88.5697 29.8189H86.8777C86.9497 31.0549 88.1137 32.0269 89.7817 32.0269C91.4017 32.0269 92.3977 31.1629 92.3977 30.0229Z" fill="#1C1C1C"/>
<path d="M31.6166 48.6015V45.6615H30.7066V53.0615H31.6166V52.0515C31.9566 52.6515 32.6666 53.1515 33.6666 53.1515C35.1366 53.1515 36.2666 52.0015 36.2666 50.3015C36.2666 48.5915 35.1466 47.4915 33.6666 47.4915C32.6966 47.4915 31.9666 47.9915 31.6166 48.6015ZM35.3366 50.3015C35.3366 51.5915 34.4866 52.3515 33.4766 52.3515C32.4866 52.3515 31.6166 51.6015 31.6166 50.3115C31.6166 49.0415 32.4866 48.2815 33.4766 48.2815C34.4866 48.2815 35.3366 49.0115 35.3366 50.3015ZM39.7444 52.0215L38.0244 47.5815H37.0144L39.2244 53.0015L38.1444 55.6415H39.0844L42.3844 47.5815H41.4444L39.7444 52.0215ZM50.8952 51.1615C50.8952 48.5815 47.1352 49.7015 47.1352 47.9015C47.1352 47.1515 47.7252 46.7615 48.4752 46.7815C49.3252 46.7915 49.7652 47.3215 49.8252 47.7915H50.8252C50.7152 46.7315 49.8452 46.0015 48.5152 46.0015C47.1352 46.0015 46.2052 46.7815 46.2052 47.9315C46.2052 50.5215 49.9752 49.3215 49.9752 51.2015C49.9752 51.8615 49.4552 52.3615 48.5752 52.3615C47.6052 52.3615 47.1952 51.7815 47.1352 51.2015H46.1652C46.1852 52.3515 47.1752 53.1315 48.5752 53.1315C50.0852 53.1315 50.8952 52.1515 50.8952 51.1615ZM52.4344 53.0615H53.3444V47.5815H52.4344V53.0615ZM52.9044 46.6915C53.2344 46.6915 53.5044 46.4215 53.5044 46.0715C53.5044 45.7215 53.2344 45.4515 52.9044 45.4515C52.5544 45.4515 52.2844 45.7215 52.2844 46.0715C52.2844 46.4215 52.5544 46.6915 52.9044 46.6915ZM55.0953 53.0615H56.0053V45.6615H55.0953V53.0615ZM57.7562 53.0615H58.6662V47.5815H57.7562V53.0615ZM58.2262 46.6915C58.5562 46.6915 58.8262 46.4215 58.8262 46.0715C58.8262 45.7215 58.5562 45.4515 58.2262 45.4515C57.8762 45.4515 57.6062 45.7215 57.6062 46.0715C57.6062 46.4215 57.8762 46.6915 58.2262 46.6915ZM60.0772 50.3115C60.0772 52.0515 61.1872 53.1515 62.7472 53.1515C64.1072 53.1515 64.9972 52.3915 65.2772 51.3015H64.2972C64.0972 51.9915 63.5572 52.3815 62.7472 52.3815C61.7472 52.3815 61.0072 51.6715 61.0072 50.3115C61.0072 48.9715 61.7472 48.2615 62.7472 48.2615C63.5572 48.2615 64.1072 48.6815 64.2972 49.3415H65.2772C64.9972 48.1915 64.1072 47.4915 62.7472 47.4915C61.1872 47.4915 60.0772 48.5915 60.0772 50.3115ZM71.8914 50.3115C71.8914 48.5815 70.6814 47.4915 69.1214 47.4915C67.5714 47.4915 66.3514 48.5815 66.3514 50.3115C66.3514 52.0515 67.5314 53.1515 69.0814 53.1515C70.6414 53.1515 71.8914 52.0515 71.8914 50.3115ZM67.2814 50.3115C67.2814 48.9315 68.1514 48.2815 69.1114 48.2815C70.0514 48.2815 70.9614 48.9315 70.9614 50.3115C70.9614 51.7015 70.0314 52.3515 69.0814 52.3515C68.1314 52.3515 67.2814 51.7015 67.2814 50.3115ZM77.2979 53.0615H78.1979V49.8315C78.1979 48.2615 77.2279 47.4815 75.9579 47.4815C75.2179 47.4815 74.5579 47.7915 74.1979 48.3615V47.5815H73.2879V53.0615H74.1979V50.0315C74.1979 48.8515 74.8379 48.2715 75.7679 48.2715C76.6879 48.2715 77.2979 48.8415 77.2979 49.9615V53.0615ZM85.3604 52.1015L83.1704 46.0915H82.2004L84.8304 53.0615H85.8804L88.5104 46.0915H87.5504L85.3604 52.1015ZM89.3682 50.3015C89.3682 52.0015 90.4982 53.1515 91.9582 53.1515C92.9682 53.1515 93.6782 52.6315 94.0082 52.0415V53.0615H94.9282V47.5815H94.0082V48.5815C93.6882 48.0115 92.9882 47.4915 91.9682 47.4915C90.4982 47.4915 89.3682 48.5915 89.3682 50.3015ZM94.0082 50.3115C94.0082 51.6015 93.1482 52.3515 92.1482 52.3515C91.1482 52.3515 90.2982 51.5915 90.2982 50.3015C90.2982 49.0115 91.1482 48.2815 92.1482 48.2815C93.1482 48.2815 94.0082 49.0415 94.0082 50.3115ZM96.666 53.0615H97.576V45.6615H96.666V53.0615ZM99.3269 53.0615H100.237V45.6615H99.3269V53.0615ZM104.318 48.2615C105.258 48.2615 106.058 48.8515 106.048 49.9215H102.588C102.688 48.8515 103.428 48.2615 104.318 48.2615ZM106.878 51.3715H105.898C105.698 51.9615 105.178 52.3815 104.358 52.3815C103.428 52.3815 102.648 51.7715 102.578 50.6615H106.958C106.978 50.4715 106.988 50.3115 106.988 50.1115C106.988 48.6115 105.948 47.4915 104.358 47.4915C102.758 47.4915 101.648 48.5815 101.648 50.3115C101.648 52.0515 102.798 53.1515 104.358 53.1515C105.718 53.1515 106.598 52.3715 106.878 51.3715ZM110.469 52.0215L108.749 47.5815H107.739L109.949 53.0015L108.869 55.6415H109.809L113.109 47.5815H112.169L110.469 52.0215ZM61.0337 70.9815H65.8437V70.2215H62.4037C63.6937 69.1715 65.6337 67.6415 65.6337 65.8415C65.6337 64.5015 64.7537 63.7015 63.3937 63.7015C62.0937 63.7015 61.1237 64.5015 61.0637 66.0415H61.9437C61.9837 65.1315 62.4637 64.4815 63.4037 64.4815C64.3837 64.4815 64.7337 65.0815 64.7337 65.8815C64.7337 67.3615 62.9337 68.8015 61.0337 70.3315V70.9815ZM67.0957 67.3715C67.0957 69.4715 67.6157 71.0615 69.6157 71.0615C71.6057 71.0615 72.1257 69.4715 72.1257 67.3715C72.1257 65.3015 71.6057 63.7215 69.6157 63.7215C67.6157 63.7215 67.0957 65.3015 67.0957 67.3715ZM71.2257 67.3715C71.2257 68.9315 71.0357 70.2315 69.6157 70.2315C68.1857 70.2315 67.9957 68.9315 67.9957 67.3715C67.9957 65.8715 68.1857 64.5515 69.6157 64.5515C71.0357 64.5515 71.2257 65.8715 71.2257 67.3715ZM74.295 71.0615H75.215V63.8315H73.335V64.6615H74.295V71.0615ZM78.2981 67.3015C77.4881 67.5415 76.9581 68.2015 76.9581 69.1115C76.9581 70.4215 77.9881 71.2615 79.5081 71.2615C81.0381 71.2615 82.0781 70.4215 82.0781 69.1115C82.0781 68.2115 81.5481 67.5515 80.7281 67.3015C81.4381 67.0215 81.8881 66.4215 81.8881 65.6415C81.8881 64.5915 81.0781 63.7215 79.5081 63.7215C77.9381 63.7215 77.1381 64.5815 77.1381 65.6415C77.1381 66.4515 77.5581 67.0115 78.2981 67.3015ZM79.5081 67.0015C78.6281 67.0015 78.0181 66.5115 78.0181 65.7615C78.0181 64.9115 78.6181 64.4815 79.5081 64.4815C80.4181 64.4815 81.0081 64.9215 81.0081 65.7515C81.0081 66.5015 80.3981 67.0015 79.5081 67.0015ZM79.5081 67.7015C80.4581 67.7015 81.1781 68.1515 81.1781 69.0815C81.1781 69.9215 80.5381 70.5015 79.5081 70.5015C78.4781 70.5015 77.8281 69.9315 77.8281 69.0815C77.8281 68.1215 78.5781 67.7015 79.5081 67.7015Z" fill="#1C1C1C"/>
<path d="M13.1321 20.7378C1.99379 45.7456 7.71175 69.5093 32.9569 83.8463C36.4214 85.8146 39.9847 87.5078 43.4868 89.0279C53.2384 93.2574 63.1001 96.3857 70.4555 100.2C74.1697 102.118 77.2282 104.137 79.7732 107.201L80.2981 106.856C77.6725 103.704 74.5306 101.643 70.7575 99.7051C63.3394 95.8802 53.475 92.7783 43.7125 88.5694C40.218 87.0617 36.6678 85.383 33.2202 83.4343C8.17345 69.2797 2.40805 45.7171 13.457 20.8278L13.1321 20.7378Z" fill="#385173"/>
<path d="M52.5422 82.5345C53.5332 83.143 55.1232 84.0696 56.7754 85.3337C62.2365 89.521 62.4093 92.3902 61.7601 94.8708C57.9941 92.1957 53.0045 91.1391 52.5422 82.5345Z" fill="#385173"/>
<path d="M43.547 79.1438C48.0608 82.2342 53.1394 86.1202 52.1184 91.1934C51.5592 90.8588 50.2025 90.1382 48.7924 89.1816C47.3817 88.2255 45.9252 87.0263 45.1566 85.7647C44.0534 83.9684 43.457 81.6711 43.547 79.1438Z" fill="#385173"/>
<path d="M35.3256 75.2184C39.846 79.0303 43.5291 82.9292 42.6308 87.3477C38.1688 84.6419 34.1302 81.6651 35.3256 75.2184Z" fill="#385173"/>
<path d="M28.1583 70.4731C32.2922 75.2446 34.4932 79.2015 33.5421 82.8684C28.7252 79.5376 26.0968 75.6367 28.1583 70.4731Z" fill="#385173"/>
<path d="M22.3498 64.7246C24.4287 68.3535 26.669 73.5279 25.2071 77.3738C20.098 72.5633 19.9181 68.1624 22.3498 64.7246Z" fill="#385173"/>
<path d="M18.1088 57.8883C19.2398 61.7548 20.2199 67.039 18.1524 70.5884C15.12 66.3149 14.1738 61.4502 18.1088 57.8883Z" fill="#385173"/>
<path d="M15.4825 50.076C15.9436 53.8079 15.6002 59.3761 12.9386 62.5289C10.314 55.7957 12.6884 51.7752 15.4825 50.076Z" fill="#385173"/>
<path d="M14.5644 41.777C14.524 42.592 14.3567 43.8062 14.0749 45.1363C13.4361 48.125 12.2052 51.4267 9.80193 53.5688C8.61419 46.5473 11.4601 43.0341 14.5644 41.777Z" fill="#385173"/>
<path d="M15.3006 33.2352C14.7974 35.8505 12.8106 41.2616 8.69031 44.1864C8.8631 37.0256 12.2748 33.9853 15.3006 33.2352Z" fill="#385173"/>
<path d="M17.5167 24.7039C16.408 28.1543 13.7034 32.2697 9.48657 34.745C10.4939 30.3145 12.5695 25.309 17.5167 24.7039Z" fill="#385173"/>
<path d="M21.0152 16.3825C19.532 19.8028 16.6306 23.1781 11.9385 25.5183C12.7964 23.3681 15.2618 16.4525 21.0152 16.3825Z" fill="#385173"/>
<path d="M21.8421 6.19655C20.6146 9.76189 17.4018 17.5676 13.9291 19.4978C13.6734 16.0275 15.7056 10.882 21.8421 6.19655Z" fill="#385173"/>
<path d="M43.9731 99.1625C45.2225 99.4616 47.1647 99.9386 49.3505 100.165C56.3941 100.902 58.7865 98.8605 60.2571 96.8303C59.3621 96.6953 54.0698 95.1966 50.7769 95.9207C48.4941 96.4238 46.2363 97.5599 43.9731 99.1625Z" fill="#385173"/>
<path d="M33.0398 93.8499C34.2831 94.271 36.2242 94.9301 38.4443 95.3216C40.665 95.7182 43.1572 95.8522 45.5098 95.3376C47.0098 95.0116 48.3807 94.229 49.6508 92.6172C49.1662 92.5397 47.641 92.1097 45.8275 91.7496C44.0135 91.3911 41.9111 91.091 40.248 91.3195C37.9178 91.6441 35.5303 92.5397 33.0398 93.8499Z" fill="#385173"/>
<path d="M22.345 87.1441C23.524 87.7632 25.3762 88.7133 27.5648 89.4064C34.2551 91.5407 37.2645 89.931 39.1353 88.0412C38.159 87.8132 33.1404 85.8144 29.9942 85.8129C27.6296 85.8189 25.0944 86.3225 22.345 87.1441Z" fill="#385173"/>
<path d="M12.765 78.4386C13.7609 79.3122 15.3749 80.6293 17.3961 81.7524C23.3212 85.0526 26.8015 84.1245 29.1203 82.4944C24.8201 80.7833 23.3244 78.0251 12.765 78.4386Z" fill="#385173"/>
<path d="M5.57202 67.6998C8.78367 72.6379 14.3675 77.7589 20.2163 75.4602C15.5776 72.3143 15.8344 70.1136 5.57202 67.6998Z" fill="#385173"/>
<path d="M1.62463 55.8802C1.99475 57.0109 2.62541 58.7801 3.70959 60.6103C6.89725 66.0114 10.2844 67.0196 13.2982 66.7215C9.82655 62.793 10.9298 60.7108 1.62463 55.8802Z" fill="#385173"/>
<path d="M0.687988 43.7821C1.12678 49.3303 3.03133 55.6622 9.00983 56.6858C6.87582 52.3172 8.35462 50.495 0.687988 43.7821Z" fill="#385173"/>
<path d="M2.44101 32.0194C1.64736 37.435 2.00331 43.6496 7.34408 46.0428C6.44414 41.2508 8.04832 39.6732 2.44101 32.0194Z" fill="#385173"/>
<path d="M6.33667 20.963C4.55532 26.0236 3.6919 31.9292 8.13545 35.3396C8.35785 30.8241 10.1937 29.2589 6.33667 20.963Z" fill="#385173"/>
<path d="M11.9113 10.7314C9.33847 15.387 7.51137 20.8377 11.0223 24.9783C12.0666 20.5077 14.1657 19.6726 11.9113 10.7314Z" fill="#385173"/>
<path d="M130.366 20.9384C142.511 48.0168 135.616 73.3496 100.397 88.7368C96.9058 90.261 93.4685 91.6156 90.2034 92.8878C77.8038 97.7118 69.0977 100.971 64.0627 107.071L64.5882 107.416C69.832 101.04 80.2524 97.3573 90.4346 93.3704C93.6991 92.0902 97.1407 90.725 100.642 89.1874C135.583 73.8277 143.198 48.4629 130.661 20.7934L130.366 20.9384Z" fill="#385173"/>
<path d="M99.5636 99.3652C98.3165 99.6602 96.3787 100.131 94.1972 100.355C92.0125 100.581 89.5929 100.562 87.3101 99.9393C85.8536 99.5417 84.5264 98.7036 83.301 97.0204C83.7911 96.9474 85.3402 96.5288 87.1804 96.2328C89.0195 95.9352 91.1464 95.7502 92.7741 96.1092C95.0552 96.6143 97.307 97.7565 99.5636 99.3652Z" fill="#385173"/>
<path d="M109.281 94.602C105.469 95.8502 101.149 96.7849 97.1274 95.9047C95.5778 95.5672 94.0902 94.7746 92.8518 93.2033C93.5065 93.0643 95.0169 92.6547 96.7617 92.3331C99.8534 91.7635 103.612 91.2585 109.281 94.602Z" fill="#385173"/>
<path d="M118.865 88.8209C113.638 91.3555 106.277 93.2036 102.373 89.168C103.479 88.8304 106.355 87.8594 108.76 87.4619C112.09 86.8713 115.884 87.5714 118.865 88.8209Z" fill="#385173"/>
<path d="M127.745 81.5752C123.242 84.9558 115.987 87.8003 111.577 84.4637C114.663 83.1275 120.495 79.952 127.745 81.5752Z" fill="#385173"/>
<path d="M135.048 72.658C131.548 76.9053 125.073 81.0195 120.058 78.6743C122.724 76.9127 128.185 72.6125 135.048 72.658Z" fill="#385173"/>
<path d="M139.948 62.4807C137.909 67.1947 132.6 72.4828 127.247 71.5297C129.324 69.349 133.788 63.7503 139.948 62.4807Z" fill="#385173"/>
<path d="M142.271 51.8665C141.666 55.5755 138.314 62.4984 132.509 63.0914C133.975 60.3896 136.853 54.1178 142.271 51.8665Z" fill="#385173"/>
<path d="M142.282 41.2035C142.538 45.9196 140.331 51.9984 135.578 53.8171C136.27 51.2853 137.611 44.1604 142.282 41.2035Z" fill="#385173"/>
<path d="M140.254 30.9248C141.404 35.2152 140.641 41.2708 136.536 44.1896C136.678 41.9159 136.231 34.4802 140.254 30.9248Z" fill="#385173"/>
<path d="M136.581 21.2481C138.363 24.9236 138.854 30.6943 135.54 34.5897C135.082 31.5944 133.365 25.0286 136.581 21.2481Z" fill="#385173"/>
<path d="M131.587 12.2423C133.751 15.2577 135.316 20.3433 132.863 25.2839C131.909 22.4236 128.987 16.2778 131.587 12.2423Z" fill="#385173"/>
<path d="M121.732 6.52151C127.755 10.1267 130.562 17.0272 129.957 19.5574C125.182 15.9521 122.631 8.46663 121.732 6.52151Z" fill="#385173"/>
<path d="M91.952 82.3482C86.7949 85.5356 81.3555 89.2627 82.758 94.6794C86.5426 91.9806 91.5203 90.9479 91.952 82.3482Z" fill="#385173"/>
<path d="M101.849 78.3943C96.6512 82.1502 92.3586 85.5476 93.4242 90.5818C93.8145 90.3138 95.1903 89.5897 96.6555 88.594C99.8186 86.4473 101.997 84.1595 101.849 78.3943Z" fill="#385173"/>
<path d="M110.695 73.7305C106.27 77.9829 102.681 81.3427 103.856 86.1841C104.222 85.9061 105.514 85.129 106.857 84.0649C109.735 81.7937 111.67 79.208 110.695 73.7305Z" fill="#385173"/>
<path d="M118.059 68.0176C114.27 73.5826 112.193 76.6499 113.692 80.8854C116.156 78.4471 121.176 75.5913 118.059 68.0176Z" fill="#385173"/>
<path d="M123.575 61.0673C121.138 67.7045 120.37 70.6238 122.37 74.1976C122.485 74.0191 122.774 73.6686 123.144 73.2006C123.499 72.718 123.951 72.129 124.349 71.4464C126.251 68.3201 126.649 65.2757 123.575 61.0673Z" fill="#385173"/>
<path d="M127.09 52.8283C126.763 56.2572 125.804 61.3514 128.273 64.8378C128.513 65.1788 128.791 65.5304 129.112 65.8949C129.292 65.4043 131.429 61.3448 130.628 58.2839C130.132 56.3712 128.889 54.5065 127.09 52.8283Z" fill="#385173"/>
<path d="M128.546 43.8388C129.151 49.7228 129.642 53.4571 133.365 56.2783C133.387 56.0778 133.463 55.6613 133.561 55.1102C133.615 54.8352 133.648 54.5217 133.692 54.1867C133.708 54.0191 133.73 53.8451 133.752 53.6666C133.768 53.4881 133.773 53.3031 133.784 53.1161C133.877 51.6165 133.73 49.8828 133.092 48.6137C132.204 46.8321 130.623 45.2085 128.546 43.8388Z" fill="#385173"/>
<path d="M127.93 34.5046C128.333 35.8648 129.669 41.0949 132.182 43.8277C132.411 44.0802 132.667 44.3283 132.956 44.5713C133.539 45.0589 134.226 45.5274 135.109 45.986C134.722 42.8626 135.583 38.1795 127.93 34.5046Z" fill="#385173"/>
<path d="M125.46 25.1486C127.782 30.0142 129.69 33.8646 134.476 35.5498C133.456 32.4694 133.511 28.0239 125.46 25.1486Z" fill="#385173"/>
<path d="M121.421 16.0779C124.495 20.8635 126.937 24.2239 131.777 25.359C130.24 22.2286 129.515 18.1431 121.421 16.0779Z" fill="#385173"/>
</svg>
