<svg width="167" height="54" viewBox="0 0 167 54" fill="none" xmlns="http://www.w3.org/2000/svg">
<path d="M5.94786 50.8389C5.94786 51.6659 5.65799 52.372 5.07825 52.9586C4.49851 53.5452 3.79787 53.8392 2.97772 53.8392H0.00756836V41.2979H2.97772C3.80474 41.2979 4.50675 41.5918 5.08237 42.1785C5.65937 42.7651 5.94786 43.4684 5.94786 44.2886V50.8389ZM1.89791 51.9695H3.03816C3.33765 51.9695 3.5918 51.861 3.79787 51.6439C4.00394 51.4268 4.10835 51.1727 4.10835 50.8787V44.3188C4.10835 44.0193 4.00394 43.7624 3.79375 43.5481C3.58356 43.3352 3.33215 43.228 3.03816 43.228H1.89791V51.9695Z" fill="black"/>
<path d="M11.3648 50.9586L10.9059 53.8395H8.93726L11.068 41.3091H13.6686L15.7691 53.8395H13.7813L13.3389 50.9586H11.3648ZM12.358 44.1789L11.6574 49.1191H13.0586L12.358 44.1789Z" fill="black"/>
<path d="M19.2888 43.209H17.2789V41.3091H23.1794V43.209H21.1778V53.8395H19.2874V43.209H19.2888Z" fill="black"/>
<path d="M27.0962 50.9586L26.6374 53.8395H24.6687L26.7995 41.3091H29.4001L31.5006 53.8395H29.5127L29.0703 50.9586H27.0962ZM28.0881 44.1789L27.3874 49.1191H28.7873L28.0881 44.1789Z" fill="black"/>
<path d="M43.7289 50.7194C43.7426 51.5931 43.5159 52.3391 43.0488 52.96C42.7425 53.3804 42.3084 53.6772 41.7492 53.8502C41.4497 53.9437 41.0994 53.9904 40.6996 53.9904C39.9592 53.9904 39.3465 53.8077 38.8601 53.4409C38.4535 53.1414 38.132 52.732 37.8957 52.2154C37.6594 51.6989 37.5207 51.1068 37.4808 50.4405L39.2805 50.31C39.3602 51.0408 39.5539 51.5697 39.8603 51.8981C40.0869 52.1467 40.3466 52.2635 40.6406 52.2498C41.0541 52.236 41.3838 52.0327 41.6311 51.6398C41.7575 51.4461 41.8207 51.17 41.8207 50.8087C41.8207 50.288 41.5844 49.7715 41.1104 49.2577C40.7367 48.9046 40.1762 48.3729 39.4303 47.6668C38.8038 47.0596 38.3601 46.5156 38.1004 46.0347C37.8202 45.4948 37.68 44.9068 37.68 44.2735C37.68 43.1319 38.0633 42.2678 38.8299 41.6812C39.3039 41.3281 39.8905 41.1509 40.5897 41.1509C41.2629 41.1509 41.8399 41.3006 42.3193 41.6015C42.693 41.835 42.9939 42.162 43.2247 42.581C43.4555 43 43.5929 43.485 43.6396 44.0317L41.8289 44.3614C41.7753 43.8476 41.6283 43.4479 41.3893 43.1607C41.2162 42.9547 40.9662 42.8503 40.6392 42.8503C40.293 42.8503 40.0292 43.0041 39.8493 43.3105C39.7023 43.5578 39.6295 43.8641 39.6295 44.2309C39.6295 44.8038 39.8754 45.3877 40.3699 45.9811C40.5568 46.2078 40.837 46.4743 41.2107 46.7807C41.6503 47.1475 41.9402 47.4044 42.0803 47.5514C42.5474 48.0185 42.9073 48.4787 43.1601 48.9321C43.2796 49.145 43.3772 49.3414 43.45 49.5214C43.6286 49.9652 43.722 50.3663 43.7289 50.7194Z" fill="black"/>
<path d="M49.9586 54.0002C49.1247 54.0002 48.4172 53.709 47.8334 53.1251C47.2495 52.5412 46.9583 51.8365 46.9583 51.0094V44.1693C46.9583 43.3354 47.2509 42.6279 47.8389 42.0441C48.4255 41.4602 49.1316 41.1689 49.9586 41.1689C50.7925 41.1689 51.4986 41.4629 52.0784 42.0495C52.6581 42.6362 52.948 43.3437 52.948 44.1693V45.5994H50.989V44.1295C50.989 43.83 50.8818 43.5731 50.6689 43.3588C50.4559 43.1458 50.199 43.0387 49.8982 43.0387C49.5987 43.0387 49.3432 43.1458 49.133 43.3588C48.9228 43.5717 48.8184 43.8286 48.8184 44.1295V50.9902C48.8184 51.2897 48.9228 51.5452 49.133 51.7554C49.3432 51.9656 49.5987 52.07 49.8982 52.07C50.1977 52.07 50.4546 51.9656 50.6689 51.7554C50.8818 51.5452 50.989 51.2897 50.989 50.9902V49.2606H52.9494V51.0108C52.9494 51.8447 52.6554 52.5508 52.0688 53.1306C51.4822 53.709 50.7788 54.0002 49.9586 54.0002Z" fill="black"/>
<path d="M58.0793 53.8395H56.189V41.3091H58.0793V53.8395Z" fill="black"/>
<path d="M61.4587 53.8392V41.2979H66.8385V43.1978H63.3477V46.6186H65.8975V48.5185H63.3477V51.9393H66.8385V53.8392H61.4587Z" fill="black"/>
<path d="M71.9506 41.2979L74.4592 49.7261V41.2979H76.3495V53.8392H74.3191L71.7185 45.808V53.8392H69.8281V41.2979H71.9506Z" fill="black"/>
<path d="M82.6993 54.0002C81.8654 54.0002 81.1579 53.709 80.5741 53.1251C79.9902 52.5412 79.699 51.8365 79.699 51.0094V44.1693C79.699 43.3354 79.993 42.6279 80.5796 42.0441C81.1662 41.4602 81.8737 41.1689 82.6993 41.1689C83.5332 41.1689 84.2394 41.4629 84.8191 42.0495C85.3988 42.6362 85.6887 43.3437 85.6887 44.1693V45.5994H83.7283V44.1295C83.7283 43.83 83.6212 43.5731 83.4082 43.3588C83.1953 43.1458 82.9384 43.0387 82.6375 43.0387C82.338 43.0387 82.0825 43.1458 81.8723 43.3588C81.6621 43.5717 81.5577 43.8286 81.5577 44.1295V50.9902C81.5577 51.2897 81.6621 51.5452 81.8723 51.7554C82.0825 51.9656 82.3367 52.07 82.6375 52.07C82.937 52.07 83.1939 51.9656 83.4082 51.7554C83.6212 51.5452 83.7283 51.2897 83.7283 50.9902V49.2606H85.6887V51.0108C85.6887 51.8447 85.3947 52.5508 84.8081 53.1306C84.2229 53.709 83.5195 54.0002 82.6993 54.0002Z" fill="black"/>
<path d="M88.9294 53.8392V41.2979H94.3106V43.1978H90.8198V46.6186H93.3696V48.5185H90.8198V51.9393H94.3106V53.8392H88.9294Z" fill="black"/>
<path d="M100.289 53.8392V41.2979H105.67V43.1978H102.18V46.6186H104.729V48.5185H102.18V51.9393H105.67V53.8392H100.289Z" fill="black"/>
<path d="M110.781 41.2979L113.289 49.7261V41.2979H115.18V53.8392H113.149L110.549 45.808V53.8392H108.658V41.2979H110.781Z" fill="black"/>
<path d="M121.529 54.0002C120.696 54.0002 119.988 53.7062 119.404 53.1196C118.82 52.533 118.529 51.8296 118.529 51.0094V44.1693C118.529 43.3354 118.823 42.6279 119.41 42.0441C119.996 41.4602 120.704 41.1689 121.529 41.1689C122.363 41.1689 123.069 41.4629 123.649 42.0495C124.229 42.6362 124.519 43.3437 124.519 44.1693V45.5994H122.558V44.1295C122.558 43.83 122.451 43.5731 122.238 43.3588C122.025 43.1458 121.768 43.0387 121.468 43.0387C121.168 43.0387 120.913 43.1458 120.702 43.3588C120.492 43.5717 120.388 43.8286 120.388 44.1295V50.9902C120.388 51.2897 120.492 51.5452 120.702 51.7554C120.913 51.9656 121.167 52.07 121.468 52.07C121.767 52.07 122.024 51.9656 122.238 51.7554C122.451 51.5466 122.558 51.2911 122.558 50.993V48.5297H121.509V46.6284H124.519V51.0081C124.519 51.842 124.225 52.5481 123.638 53.1278C123.053 53.709 122.35 54.0002 121.529 54.0002Z" fill="black"/>
<path d="M129.739 53.8395H127.849V41.3091H129.739V53.8395Z" fill="black"/>
<path d="M135.241 41.2979L137.75 49.7261V41.2979H139.64V53.8392H137.61L135.009 45.808V53.8392H133.119V41.2979H135.241Z" fill="black"/>
<path d="M143.02 53.8392V41.2979H148.401V43.1978H144.91V46.6186H147.46V48.5185H144.91V51.9393H148.401V53.8392H143.02Z" fill="black"/>
<path d="M151.39 53.8392V41.2979H156.771V43.1978H153.28V46.6186H155.83V48.5185H153.28V51.9393H156.771V53.8392H151.39Z" fill="black"/>
<path d="M162.741 41.3091C163.795 41.3091 164.568 41.599 165.061 42.1787C165.494 42.6856 165.711 43.3918 165.711 44.2985V46.1187C165.711 47.0062 165.374 47.7563 164.701 48.369L166.101 53.8395H164.057L162.911 49.1191C162.858 49.1191 162.801 49.1191 162.741 49.1191H161.65V53.8395H159.76V41.3091H162.741ZM163.87 44.3287C163.87 43.6019 163.51 43.2393 162.79 43.2393H161.65V47.2494H162.79C163.09 47.2494 163.345 47.1422 163.556 46.9293C163.766 46.7163 163.87 46.4594 163.87 46.1586V44.3287Z" fill="black"/>
<path d="M88.2047 5.23013V0.00146484H64.6262C64.2498 0.00146484 63.9009 0.0687808 63.5794 0.203413C63.2565 0.338045 62.9777 0.524881 62.7441 0.766669C62.5092 1.00846 62.3251 1.29009 62.1905 1.61293C62.0558 1.93577 61.9885 2.27784 61.9885 2.64053V5.23151H88.2047V5.23013Z" fill="black"/>
<path d="M18.2234 23.6404H12.0798C11.0604 23.6404 10.1304 23.4755 9.29098 23.1472C8.45159 22.8175 7.73035 22.3545 7.12588 21.7583C6.52141 21.1607 6.05569 20.4394 5.72598 19.5932C5.39764 18.7469 5.23279 17.8141 5.23279 16.7947V12.0826C5.23279 11.0495 5.39764 10.1126 5.72598 9.27321C6.05569 8.43382 6.52141 7.71533 7.12588 7.1191C7.73035 6.5215 8.45159 6.05853 9.29098 5.73019C10.1304 5.40048 11.0591 5.237 12.0798 5.237H23.6169V20.7843L28.8525 20.6469V2.63915C28.8525 2.26273 28.7851 1.91379 28.6505 1.59232C28.5159 1.26948 28.3318 0.991972 28.0969 0.757053C27.862 0.522134 27.5831 0.338045 27.2616 0.203413C26.9401 0.0687808 26.5912 0.00146484 26.2148 0.00146484H12.0812C10.3502 0.00146484 8.74559 0.3037 7.26876 0.90817C5.79192 1.51264 4.51704 2.34791 3.44273 3.41535C2.36842 4.48279 1.52629 5.75355 0.91632 7.23038C0.306354 8.70721 0 10.3242 0 12.0826V16.7947C0 18.5395 0.30498 20.1537 0.91632 21.6374C1.52766 23.1211 2.3698 24.396 3.44273 25.4634C4.51704 26.5308 5.79192 27.3661 7.26876 27.9706C8.74559 28.575 10.3488 28.8773 12.0812 28.8773H18.2248V23.6404H18.2234Z" fill="black"/>
<path d="M60.2274 20.3775C60.2274 21.412 60.0969 22.3407 59.8345 23.1663C59.5721 23.992 59.2273 24.7201 58.7973 25.3507C58.3673 25.9812 57.8645 26.5184 57.2875 26.9621C56.7105 27.4045 56.1129 27.7672 55.4961 28.0488C54.8778 28.3304 54.2514 28.5392 53.614 28.6725C52.9765 28.8071 52.3762 28.8744 51.8115 28.8744H15.4897V23.6389H51.8115C52.8185 23.6389 53.6002 23.3435 54.1566 22.7528C54.713 22.1621 54.9919 21.3708 54.9919 20.3775C54.9919 19.8939 54.9177 19.4516 54.7707 19.0491C54.6223 18.6465 54.4108 18.2976 54.136 18.0022C53.8612 17.7069 53.5247 17.4788 53.129 17.3181C52.7334 17.1573 52.2937 17.0763 51.8102 17.0763H39.7688C38.9226 17.0763 38.0104 16.9252 37.0309 16.6229C36.0514 16.3207 35.1419 15.8344 34.3025 15.1626C33.4631 14.4922 32.7652 13.6116 32.2088 12.5249C31.6511 11.4382 31.3736 10.1084 31.3736 8.53814C31.3736 6.96789 31.6525 5.64218 32.2088 4.561C32.7652 3.4812 33.4631 2.60197 34.3025 1.92331C35.1419 1.24603 36.0514 0.755588 37.0309 0.453353C38.0104 0.151118 38.924 0 39.7688 0H82.2535V5.23554H39.7702C38.777 5.23554 38.0008 5.53777 37.4444 6.14224C36.8866 6.74671 36.6091 7.54489 36.6091 8.53814C36.6091 9.54513 36.888 10.3406 37.4444 10.9244C38.0008 11.5083 38.777 11.8009 39.7702 11.8009H51.8115H51.8514C52.4146 11.8146 53.0122 11.8916 53.6428 12.0331C54.2734 12.1746 54.9012 12.393 55.5249 12.687C56.1486 12.9824 56.7435 13.3547 57.3067 13.8039C57.87 14.2531 58.37 14.7944 58.8069 15.425C59.2424 16.0556 59.5886 16.7809 59.8441 17.5997C60.0997 18.4185 60.2274 19.3444 60.2274 20.3775Z" fill="black"/>
<path d="M85.8485 11.8013H69.3176V17.0766H85.8485V11.8013Z" fill="black"/>
<path d="M67.7681 23.0966C67.4054 22.7339 67.2241 22.2105 67.2241 21.5263V11.7339H61.9885V21.5263C61.9885 22.8822 62.2331 24.0266 62.7235 24.9594C63.2139 25.8922 63.8239 26.6506 64.5562 27.2344C65.287 27.8183 66.0824 28.2387 66.9424 28.4928C67.8011 28.7484 68.5937 28.8761 69.3177 28.8761H88.2047V23.6406H69.3589C68.6597 23.6406 68.1294 23.4592 67.7681 23.0966Z" fill="black"/>
</svg>
