<svg width="139" height="46" viewBox="0 0 139 46" fill="none" xmlns="http://www.w3.org/2000/svg">
<path d="M4.97743 43.2226C4.97743 43.9147 4.73485 44.5056 4.2497 44.9965C3.76455 45.4874 3.17823 45.7334 2.49189 45.7334H0.00634766V35.2383H2.49189C3.18397 35.2383 3.77144 35.4843 4.25315 35.9752C4.736 36.4661 4.97743 37.0547 4.97743 37.7411V43.2226ZM1.58826 44.1687H2.54247C2.79309 44.1687 3.00578 44.0779 3.17823 43.8963C3.35067 43.7146 3.43805 43.502 3.43805 43.2559V37.7664C3.43805 37.5157 3.35067 37.3008 3.17478 37.1214C2.99888 36.9432 2.7885 36.8535 2.54247 36.8535H1.58826V44.1687Z" fill="white"/>
<path d="M9.51043 43.3232L9.12645 45.734H7.479L9.26211 35.248H11.4384L13.1962 45.734H11.5327L11.1625 43.3232H9.51043ZM10.3416 37.6497L9.75531 41.7838H10.9279L10.3416 37.6497Z" fill="white"/>
<path d="M16.1417 36.838H14.4597V35.248H19.3975V36.838H17.7224V45.734H16.1405V36.838H16.1417Z" fill="white"/>
<path d="M22.6752 43.3232L22.2912 45.734H20.6438L22.4269 35.248H24.6032L26.361 45.734H24.6975L24.3273 43.3232H22.6752ZM23.5053 37.6497L22.919 41.7838H24.0904L23.5053 37.6497Z" fill="white"/>
<path d="M36.5941 43.123C36.6056 43.8542 36.4159 44.4785 36.025 44.9981C35.7686 45.3499 35.4053 45.5982 34.9374 45.7431C34.6868 45.8212 34.3937 45.8603 34.0591 45.8603C33.4394 45.8603 32.9267 45.7074 32.5197 45.4005C32.1794 45.1498 31.9104 44.8073 31.7127 44.375C31.5149 43.9427 31.3988 43.4472 31.3655 42.8896L32.8715 42.7804C32.9382 43.392 33.1003 43.8347 33.3567 44.1094C33.5464 44.3175 33.7636 44.4152 34.0097 44.4037C34.3557 44.3922 34.6316 44.2221 34.8386 43.8933C34.9443 43.7312 34.9972 43.5001 34.9972 43.1977C34.9972 42.762 34.7995 42.3298 34.4028 41.8998C34.0901 41.6043 33.6211 41.1594 32.9968 40.5685C32.4726 40.0604 32.1013 39.6051 31.884 39.2027C31.6494 38.7509 31.5322 38.2589 31.5322 37.7289C31.5322 36.7735 31.8529 36.0504 32.4944 35.5595C32.8911 35.264 33.382 35.1157 33.9671 35.1157C34.5305 35.1157 35.0133 35.241 35.4145 35.4928C35.7272 35.6882 35.979 35.9619 36.1722 36.3125C36.3653 36.6631 36.4803 37.069 36.5194 37.5265L35.0041 37.8024C34.9593 37.3725 34.8363 37.0379 34.6362 36.7977C34.4914 36.6252 34.2821 36.5378 34.0085 36.5378C33.7188 36.5378 33.4981 36.6666 33.3475 36.923C33.2245 37.1299 33.1635 37.3863 33.1635 37.6932C33.1635 38.1726 33.3693 38.6612 33.7832 39.1579C33.9395 39.3476 34.1741 39.5706 34.4868 39.827C34.8547 40.1339 35.0972 40.3489 35.2145 40.4719C35.6054 40.8628 35.9066 41.2479 36.1181 41.6273C36.2181 41.8055 36.2998 41.9699 36.3607 42.1205C36.5102 42.4919 36.5883 42.8276 36.5941 43.123Z" fill="white"/>
<path d="M41.8075 45.8681C41.1096 45.8681 40.5176 45.6244 40.029 45.1358C39.5404 44.6472 39.2966 44.0574 39.2966 43.3653V37.6412C39.2966 36.9434 39.5415 36.3513 40.0336 35.8627C40.5245 35.3741 41.1154 35.1304 41.8075 35.1304C42.5053 35.1304 43.0962 35.3764 43.5814 35.8673C44.0665 36.3582 44.3091 36.9503 44.3091 37.6412V38.838H42.6697V37.6079C42.6697 37.3572 42.58 37.1423 42.4018 36.9629C42.2236 36.7847 42.0086 36.695 41.7569 36.695C41.5063 36.695 41.2924 36.7847 41.1165 36.9629C40.9406 37.1411 40.8533 37.3561 40.8533 37.6079V43.3492C40.8533 43.5998 40.9406 43.8137 41.1165 43.9896C41.2924 44.1655 41.5063 44.2528 41.7569 44.2528C42.0075 44.2528 42.2225 44.1655 42.4018 43.9896C42.58 43.8137 42.6697 43.5998 42.6697 43.3492V41.9018H44.3102V43.3664C44.3102 44.0643 44.0642 44.6552 43.5733 45.1404C43.0824 45.6244 42.4938 45.8681 41.8075 45.8681Z" fill="white"/>
<path d="M48.6032 45.734H47.0212V35.248H48.6032V45.734Z" fill="white"/>
<path d="M51.4312 45.7334V35.2383H55.9332V36.8282H53.0119V39.6909H55.1457V41.2808H53.0119V44.1435H55.9332V45.7334H51.4312Z" fill="white"/>
<path d="M60.2113 35.2383L62.3105 42.2914V35.2383H63.8924V45.7334H62.1933L60.017 39.0126V45.7334H58.4351V35.2383H60.2113Z" fill="white"/>
<path d="M69.2061 45.8681C68.5083 45.8681 67.9162 45.6244 67.4276 45.1358C66.939 44.6472 66.6953 44.0574 66.6953 43.3653V37.6412C66.6953 36.9434 66.9413 36.3513 67.4322 35.8627C67.9231 35.3741 68.5152 35.1304 69.2061 35.1304C69.904 35.1304 70.4949 35.3764 70.98 35.8673C71.4652 36.3582 71.7078 36.9503 71.7078 37.6412V38.838H70.0672V37.6079C70.0672 37.3572 69.9776 37.1423 69.7994 36.9629C69.6212 36.7847 69.4062 36.695 69.1544 36.695C68.9038 36.695 68.69 36.7847 68.5141 36.9629C68.3382 37.1411 68.2508 37.3561 68.2508 37.6079V43.3492C68.2508 43.5998 68.3382 43.8137 68.5141 43.9896C68.69 44.1655 68.9026 44.2528 69.1544 44.2528C69.405 44.2528 69.62 44.1655 69.7994 43.9896C69.9776 43.8137 70.0672 43.5998 70.0672 43.3492V41.9018H71.7078V43.3664C71.7078 44.0643 71.4618 44.6552 70.9709 45.1404C70.4811 45.6244 69.8925 45.8681 69.2061 45.8681Z" fill="white"/>
<path d="M74.4197 45.7334V35.2383H78.9228V36.8282H76.0016V39.6909H78.1353V41.2808H76.0016V44.1435H78.9228V45.7334H74.4197Z" fill="white"/>
<path d="M83.926 45.7334V35.2383H88.4292V36.8282H85.5079V39.6909H87.6417V41.2808H85.5079V44.1435H88.4292V45.7334H83.926Z" fill="white"/>
<path d="M92.7059 35.2383L94.8052 42.2914V35.2383H96.3871V45.7334H94.6879L92.5116 39.0126V45.7334H90.9297V35.2383H92.7059Z" fill="white"/>
<path d="M101.701 45.8681C101.003 45.8681 100.411 45.6221 99.9223 45.1312C99.4337 44.6403 99.1899 44.0516 99.1899 43.3653V37.6412C99.1899 36.9434 99.436 36.3513 99.9269 35.8627C100.418 35.3741 101.01 35.1304 101.701 35.1304C102.399 35.1304 102.99 35.3764 103.475 35.8673C103.96 36.3582 104.202 36.9503 104.202 37.6412V38.838H102.562V37.6079C102.562 37.3572 102.472 37.1423 102.294 36.9629C102.116 36.7847 101.901 36.695 101.649 36.695C101.398 36.695 101.185 36.7847 101.009 36.9629C100.833 37.1411 100.745 37.3561 100.745 37.6079V43.3492C100.745 43.5998 100.833 43.8137 101.009 43.9896C101.185 44.1655 101.397 44.2528 101.649 44.2528C101.9 44.2528 102.115 44.1655 102.294 43.9896C102.472 43.8148 102.562 43.601 102.562 43.3515V41.2902H101.684V39.6991H104.202V43.3641C104.202 44.062 103.956 44.6529 103.465 45.1381C102.976 45.6244 102.387 45.8681 101.701 45.8681Z" fill="white"/>
<path d="M108.571 45.734H106.989V35.248H108.571V45.734Z" fill="white"/>
<path d="M113.176 35.2383L115.275 42.2914V35.2383H116.857V45.7334H115.158L112.981 39.0126V45.7334H111.399V35.2383H113.176Z" fill="white"/>
<path d="M119.685 45.7334V35.2383H124.188V36.8282H121.267V39.6909H123.4V41.2808H121.267V44.1435H124.188V45.7334H119.685Z" fill="white"/>
<path d="M126.689 45.7334V35.2383H131.193V36.8282H128.271V39.6909H130.405V41.2808H128.271V44.1435H131.193V45.7334H126.689Z" fill="white"/>
<path d="M136.188 35.248C137.07 35.248 137.717 35.4906 138.13 35.9758C138.492 36.4 138.674 36.9909 138.674 37.7497V39.273C138.674 40.0156 138.392 40.6433 137.829 41.1561L139 45.734H137.289L136.331 41.7838C136.286 41.7838 136.239 41.7838 136.188 41.7838H135.275V45.734H133.693V35.248H136.188ZM137.133 37.775C137.133 37.1668 136.832 36.8633 136.229 36.8633H135.275V40.2191H136.229C136.48 40.2191 136.694 40.1295 136.87 39.9513C137.046 39.7731 137.133 39.5581 137.133 39.3063V37.775Z" fill="white"/>
<path d="M73.8132 5.05574V0.680176H54.0818C53.7668 0.680176 53.4748 0.736509 53.2058 0.849174C52.9356 0.96184 52.7023 1.11819 52.5068 1.32053C52.3102 1.52287 52.1562 1.75855 52.0435 2.02871C51.9308 2.29888 51.8745 2.58514 51.8745 2.88865V5.05689H73.8132V5.05574Z" fill="white"/>
<path d="M15.2501 20.4622H10.1089C9.25582 20.4622 8.4775 20.3242 7.77507 20.0494C7.07263 19.7735 6.46907 19.3861 5.96322 18.8871C5.45738 18.3871 5.06765 17.7835 4.79173 17.0753C4.51697 16.3671 4.37901 15.5865 4.37901 14.7335V10.7902C4.37901 9.92564 4.51697 9.14158 4.79173 8.43915C5.06765 7.73671 5.45738 7.13545 5.96322 6.6365C6.46907 6.1364 7.07263 5.74897 7.77507 5.47421C8.4775 5.19829 9.25467 5.06148 10.1089 5.06148H19.7636V18.0721L24.1449 17.9571V2.8875C24.1449 2.5725 24.0886 2.28049 23.9759 2.01147C23.8632 1.7413 23.7092 1.50907 23.5126 1.31248C23.316 1.11589 23.0826 0.96184 22.8136 0.849174C22.5446 0.736509 22.2526 0.680176 21.9376 0.680176H10.11C8.66145 0.680176 7.31866 0.933098 6.08279 1.43894C4.84692 1.94479 3.78004 2.64377 2.88102 3.53705C1.98199 4.43033 1.27726 5.49375 0.766813 6.72962C0.25637 7.96549 0 9.31863 0 10.7902V14.7335C0 16.1935 0.25522 17.5444 0.766813 18.786C1.27841 20.0276 1.98314 21.0945 2.88102 21.9877C3.78004 22.881 4.84692 23.58 6.08279 24.0859C7.31866 24.5917 8.6603 24.8446 10.11 24.8446H15.2512V20.4622H15.2501Z" fill="white"/>
<path d="M50.4007 17.7319C50.4007 18.5976 50.2915 19.3748 50.0719 20.0657C49.8523 20.7566 49.5637 21.366 49.2039 21.8937C48.8441 22.4213 48.4233 22.8709 47.9404 23.2422C47.4576 23.6124 46.9575 23.9159 46.4413 24.1516C45.924 24.3872 45.3997 24.562 44.8663 24.6735C44.3328 24.7862 43.8304 24.8425 43.3579 24.8425H12.9624V20.4612H43.3579C44.2006 20.4612 44.8548 20.214 45.3204 19.7197C45.786 19.2253 46.0194 18.5631 46.0194 17.7319C46.0194 17.3273 45.9573 16.9571 45.8343 16.6202C45.7101 16.2834 45.5331 15.9914 45.3031 15.7442C45.0732 15.497 44.7916 15.3062 44.4605 15.1717C44.1294 15.0372 43.7615 14.9693 43.3568 14.9693H33.2801C32.5719 14.9693 31.8086 14.8429 30.9889 14.5899C30.1692 14.337 29.4081 13.93 28.7057 13.3679C28.0032 12.8068 27.4192 12.0699 26.9536 11.1605C26.4869 10.2512 26.2546 9.13831 26.2546 7.82426C26.2546 6.51021 26.488 5.4008 26.9536 4.49603C27.4192 3.59241 28.0032 2.85663 28.7057 2.28871C29.4081 1.72193 30.1692 1.31151 30.9889 1.05858C31.8086 0.80566 32.5731 0.679199 33.2801 0.679199H68.833V5.06051H33.2813C32.4501 5.06051 31.8005 5.31343 31.3349 5.81927C30.8682 6.32512 30.6359 6.99307 30.6359 7.82426C30.6359 8.66695 30.8693 9.3326 31.3349 9.8212C31.8005 10.3098 32.4501 10.5547 33.2813 10.5547H43.3579H43.3913C43.8626 10.5662 44.3627 10.6306 44.8904 10.749C45.4181 10.8674 45.9435 11.0502 46.4654 11.2962C46.9874 11.5434 47.4852 11.8549 47.9565 12.2309C48.4279 12.6068 48.8464 13.0598 49.2119 13.5874C49.5764 14.1151 49.8661 14.7221 50.0799 15.4073C50.2938 16.0925 50.4007 16.8674 50.4007 17.7319Z" fill="white"/>
<path d="M71.8415 10.5547H58.0078V14.9693H71.8415V10.5547Z" fill="white"/>
<path d="M56.7111 20.0073C56.4076 19.7038 56.2558 19.2657 56.2558 18.6932V10.4985H51.8745V18.6932C51.8745 19.8279 52.0791 20.7856 52.4896 21.5662C52.9 22.3468 53.4104 22.9814 54.0232 23.47C54.6348 23.9586 55.3005 24.3104 56.0201 24.5231C56.7387 24.7369 57.402 24.8438 58.0079 24.8438H73.8132V20.4625H58.0424C57.4572 20.4625 57.0134 20.3108 56.7111 20.0073Z" fill="white"/>
</svg>
