<svg width="13" height="23" viewBox="0 0 13 23" fill="none" xmlns="http://www.w3.org/2000/svg">
<path d="M1.81959 0.000636975C2.31609 0.10264 2.67281 0.416941 3.01941 0.766941C6.15526 3.93607 9.29617 7.1001 12.4377 10.2635C12.9323 10.7614 13.1398 11.3403 12.9007 12.018C12.8147 12.2628 12.6553 12.5025 12.4725 12.6874C9.24494 15.954 6.00916 19.2137 2.77274 22.4721C2.28256 22.9662 1.69435 23.1345 1.03847 22.8871C0.422431 22.6557 0.0726671 22.1801 0.00815381 21.5177C-0.0443423 20.9828 0.168172 20.5423 0.540072 20.1693C1.28767 19.4196 2.0321 18.6667 2.7778 17.9157C4.83653 15.8412 6.89463 13.7667 8.954 11.6922C9.01156 11.6342 9.07733 11.5851 9.2228 11.4601C9.11022 11.3957 9.01788 11.3658 8.95653 11.3046C6.15526 8.48608 3.35779 5.6644 0.557781 2.84399C0.0783586 2.36075 -0.127199 1.80037 0.0808885 1.12969C0.244702 0.601185 0.597627 0.251184 1.12322 0.081604C1.20734 0.0548267 1.29083 0.0274143 1.37432 -6.00734e-08C1.52295 0.000636988 1.67095 0.000636981 1.81959 0.000636975Z" fill="#56B7E2"/>
</svg>
