<svg width="13" height="23" viewBox="0 0 13 23" fill="none" xmlns="http://www.w3.org/2000/svg">
<path d="M11.1804 0.000636975C10.6839 0.10264 10.3272 0.416941 9.98059 0.766941C6.84474 3.93607 3.70383 7.1001 0.562283 10.2635C0.0676809 10.7614 -0.139775 11.3403 0.0993047 12.018C0.185322 12.2628 0.344708 12.5025 0.527496 12.6874C3.75506 15.954 6.99084 19.2137 10.2273 22.4721C10.7174 22.9662 11.3056 23.1345 11.9615 22.8871C12.5776 22.6557 12.9273 22.1801 12.9918 21.5177C13.0443 20.9828 12.8318 20.5423 12.4599 20.1693C11.7123 19.4196 10.9679 18.6667 10.2222 17.9157C8.16347 15.8412 6.10537 13.7667 4.046 11.6922C3.98844 11.6342 3.92267 11.5851 3.7772 11.4601C3.88978 11.3957 3.98212 11.3658 4.04347 11.3046C6.84474 8.48608 9.64221 5.6644 12.4422 2.84399C12.9216 2.36075 13.1272 1.80037 12.9191 1.12969C12.7553 0.601185 12.4024 0.251184 11.8768 0.081604C11.7927 0.0548267 11.7092 0.0274143 11.6257 -6.00734e-08C11.477 0.000636988 11.329 0.000636981 11.1804 0.000636975Z" fill="#56B7E2"/>
</svg>
