<svg width="17" height="14" viewBox="0 0 17 14" fill="none" xmlns="http://www.w3.org/2000/svg">
<path d="M17 6.84051C16.9277 6.47398 16.6931 6.20891 16.4266 5.95343C14.4944 4.10524 12.5678 2.2511 10.6389 0.398795C10.233 0.00895517 9.71007 -0.103015 9.24425 0.0980745C8.50959 0.415247 8.29262 1.30461 8.8046 1.90422C8.86741 1.9778 8.93735 2.04681 9.00729 2.11445C9.91848 2.99011 10.8287 3.86667 11.7423 4.74004C12.1676 5.14679 12.5559 5.59879 13.1531 5.79988C13.1492 5.81359 13.1454 5.8273 13.1416 5.84101C13.0798 5.84101 13.0179 5.84101 12.9556 5.84101C9.09437 5.84101 5.23315 5.84238 1.37192 5.83918C0.985564 5.83872 0.633463 5.91139 0.359871 6.18926C0.0191885 6.53522 -0.0950063 6.94517 0.0838992 7.39351C0.269942 7.86013 0.643931 8.11743 1.16399 8.16953C1.26249 8.17959 1.36289 8.17685 1.46233 8.17685C5.29595 8.1773 9.12958 8.1773 12.9632 8.1773C13.0265 8.1773 13.0898 8.1773 13.1383 8.1773C12.8771 8.34823 12.613 8.5155 12.3565 8.69282C12.259 8.76046 12.1767 8.85004 12.091 8.93276C11.0481 9.93729 10.0079 10.9446 8.96257 11.9468C8.59619 12.2983 8.43775 12.7082 8.57621 13.1927C8.79223 13.9486 9.78049 14.2497 10.4257 13.7648C10.5128 13.6995 10.5941 13.6268 10.6722 13.5519C12.5864 11.7156 14.4972 9.87651 16.4138 8.04294C16.6807 7.78746 16.9191 7.52422 17 7.15951C17 7.05348 17 6.947 17 6.84051Z" fill="white"/>
</svg>
