<svg width="14" height="27" viewBox="0 0 14 27" fill="none" xmlns="http://www.w3.org/2000/svg">
<path d="M1.95955 0.000747595C2.49425 0.120491 2.87841 0.489452 3.25167 0.900322C6.62874 4.62061 10.0113 8.33491 13.3945 12.0485C13.9271 12.633 14.1505 13.3125 13.8931 14.108C13.8004 14.3954 13.6288 14.6768 13.4319 14.8939C9.95609 18.7287 6.4714 22.5552 2.98603 26.3803C2.45815 26.9603 1.82469 27.1579 1.11835 26.8675C0.454925 26.5958 0.0782569 26.0375 0.00878102 25.2599C-0.0477533 24.632 0.181108 24.1149 0.581616 23.6771C1.38672 22.7969 2.18842 21.9131 2.99148 21.0315C5.20857 18.5962 7.42499 16.1609 9.64277 13.7256C9.70475 13.6575 9.77559 13.5999 9.93225 13.4532C9.81101 13.3776 9.71156 13.3424 9.64549 13.2706C6.62874 9.96192 3.61608 6.64951 0.600687 3.3386C0.0843861 2.77131 -0.136983 2.11348 0.0871106 1.32616C0.263525 0.70574 0.643599 0.294868 1.20962 0.0957946C1.30021 0.0643615 1.39012 0.0321807 1.48003 -6.46944e-08C1.6401 0.000747609 1.79949 0.000747602 1.95955 0.000747595Z" fill="#686868"/>
</svg>
