<svg width="28" height="15" viewBox="0 0 28 15" fill="none" xmlns="http://www.w3.org/2000/svg">
<path d="M0.500748 12.5404C0.620491 12.0058 0.989452 11.6216 1.40032 11.2483C5.12061 7.87126 8.8349 4.48874 12.5485 1.10554C13.133 0.572887 13.8125 0.349474 14.608 0.606943C14.8954 0.699577 15.1768 0.871225 15.3939 1.06807C19.2287 4.54391 23.0552 8.0286 26.8803 11.514C27.4603 12.0419 27.6579 12.6753 27.3675 13.3816C27.0958 14.0451 26.5375 14.4217 25.7599 14.4912C25.132 14.5478 24.6149 14.3189 24.1771 13.9184C23.2969 13.1133 22.4131 12.3116 21.5315 11.5085C19.0962 9.29143 16.6609 7.07501 14.2256 4.85723C14.1575 4.79525 14.0999 4.72441 13.9532 4.56775C13.8776 4.68899 13.8424 4.78844 13.7706 4.85451C10.4619 7.87126 7.14951 10.8839 3.8386 13.8993C3.27131 14.4156 2.61348 14.637 1.82616 14.4129C1.20574 14.2365 0.794868 13.8564 0.595795 13.2904C0.564361 13.1998 0.532181 13.1099 0.5 13.02C0.500748 12.8599 0.500748 12.7005 0.500748 12.5404Z" fill="#56B7E2"/>
</svg>
