<svg width="22" height="22" viewBox="0 0 22 22" fill="none" xmlns="http://www.w3.org/2000/svg">
<path d="M1.28569 0.285889C0.764262 0.285889 0.0952148 0.676365 0.0952148 1.47636C0.0952148 6.87994 2.28664 12.0397 6.00807 15.8016C9.76997 19.523 14.9297 21.7145 20.3333 21.7145C21.1333 21.7145 21.5238 21.0454 21.5238 20.524V16.3457C21.5238 15.6969 21.01 15.1684 20.3612 15.1529C19.6112 15.135 18.6674 15.0902 18.0709 14.9855C17.4257 14.8712 16.648 14.6512 16.1015 14.4809C15.673 14.3476 15.208 14.4642 14.8901 14.7809L12.2511 17.406C10.4273 16.4452 8.96558 15.325 7.72868 14.081C6.48463 12.8441 5.36443 11.3824 4.40372 9.55858L7.02881 6.91954C7.34548 6.60168 7.46209 6.13438 7.32875 5.70581C7.15971 5.16057 6.93729 4.38397 6.8242 3.73873C6.71824 3.14231 6.67583 2.19846 6.65678 1.44846C6.64131 0.799654 6.11279 0.285889 5.46398 0.285889H1.28569ZM10.8095 0.285889V2.66684C15.4119 2.66684 19.1428 6.39779 19.1428 11.0002H21.5238C21.5238 5.08232 16.7274 0.285889 10.8095 0.285889ZM10.8095 5.04779V7.42875C12.7821 7.42875 14.3809 9.02756 14.3809 11.0002H16.7619C16.7619 7.71327 14.0964 5.04779 10.8095 5.04779Z" fill="white"/>
</svg>
