<svg width="12" height="21" viewBox="0 0 12 21" fill="none" xmlns="http://www.w3.org/2000/svg">
<path fill-rule="evenodd" clip-rule="evenodd" d="M9.09807 4.33173C9.70556 4.33173 10.3131 4.33173 10.9205 4.33173C10.9813 4.33173 11.042 4.33173 11.1635 4.33173V1.03153C10.8598 0.969262 10.4953 0.969262 10.1308 0.906994C9.52332 0.906994 8.85507 0.844727 8.24758 0.844727C7.2756 0.844727 6.36436 1.0938 5.57462 1.65421C4.66338 2.33916 4.17739 3.27317 3.99514 4.394C3.93439 4.82987 3.87364 5.32802 3.87364 5.76389C3.87364 6.51111 3.87364 7.19605 3.87364 7.94327V8.19234H0.836182V11.8039H3.87364V20.9573H7.57934V11.9907H10.6168C10.799 10.8076 10.9205 9.56223 11.1028 8.31687C10.8598 8.31687 10.6168 8.31687 10.4346 8.31687C9.58406 8.31687 7.64009 8.31687 7.64009 8.31687C7.64009 8.31687 7.64009 6.51111 7.64009 5.76389C7.64009 4.64307 8.30833 4.33173 9.09807 4.33173Z" fill="white"/>
</svg>
