<svg width="21" height="22" viewBox="0 0 21 22" fill="none" xmlns="http://www.w3.org/2000/svg">
<path d="M15.9793 21.2138C12.3091 21.2138 8.63901 21.2138 4.96826 21.2138C4.58616 21.1327 4.19284 21.086 3.82321 20.9657C1.67586 20.2676 0.269645 18.339 0.263411 16.0732C0.254061 12.6898 0.258425 9.30581 0.262165 5.92178C0.263411 4.82723 0.56884 3.82056 1.21959 2.93731C2.27799 1.49993 3.71413 0.790585 5.49684 0.788715C8.78736 0.785598 12.0779 0.785598 15.369 0.791208C15.7131 0.791831 16.0628 0.806791 16.4006 0.8685C18.2881 1.21195 19.6045 2.28407 20.3245 4.05555C20.509 4.50933 20.5694 5.01422 20.6872 5.49543C20.6872 9.16556 20.6872 12.8357 20.6872 16.5064C20.6617 16.6492 20.638 16.7919 20.6112 16.934C20.2578 18.809 19.1956 20.1217 17.4385 20.8448C16.9785 21.0336 16.4667 21.0941 15.9793 21.2138ZM18.9725 11.0012C18.975 11.0012 18.9775 11.0012 18.9799 11.0012C18.9799 9.33947 18.9768 7.67706 18.9818 6.01528C18.9831 5.48296 18.9114 4.9656 18.6739 4.48689C18.0294 3.18851 16.9778 2.50223 15.5255 2.49724C12.1552 2.4854 8.78424 2.49288 5.41393 2.49537C5.21572 2.49537 5.01563 2.51407 4.81928 2.54212C3.27219 2.76029 1.99126 4.15902 1.98129 5.72544C1.95823 9.20233 1.97194 12.6792 1.97007 16.1561C1.97007 16.6286 2.06232 17.0843 2.27051 17.5063C2.92376 18.8296 3.99463 19.5052 5.47315 19.5077C8.80357 19.5127 12.1346 19.5102 15.465 19.5071C15.69 19.5071 15.9163 19.4897 16.1395 19.4591C17.6566 19.2509 18.9469 17.8366 18.9675 16.307C18.9905 14.538 18.9725 12.7696 18.9725 11.0012Z" fill="white"/>
<path d="M10.451 16.1062C7.62422 16.0819 5.33475 13.7675 5.36841 10.9676C5.40207 8.14266 7.69839 5.87127 10.4965 5.89496C13.3233 5.91865 15.6134 8.23305 15.5797 11.033C15.5454 13.8567 13.2472 16.1306 10.451 16.1062ZM10.4778 14.4008C12.359 14.3971 13.8724 12.8818 13.873 11.0018C13.8737 9.1219 12.3615 7.60661 10.479 7.60162C8.59411 7.59663 7.06447 9.12751 7.07382 11.0106C7.08317 12.8936 8.59972 14.4046 10.4778 14.4008Z" fill="white"/>
<path d="M15.9973 6.73891C15.2948 6.73392 14.7363 6.17169 14.7357 5.4692C14.7357 4.76235 15.3173 4.18266 16.0154 4.19326C16.7141 4.20385 17.282 4.77544 17.2832 5.46795C17.2839 6.16919 16.7029 6.7439 15.9973 6.73891Z" fill="white"/>
</svg>
