<svg width="19" height="20" viewBox="0 0 19 20" fill="none" xmlns="http://www.w3.org/2000/svg">
<path d="M14.3544 6.67773C12.3269 6.67773 11.3695 7.40988 10.6936 8.42363V7.4662C10.6936 7.12829 10.412 6.90301 10.1305 6.90301H7.37081C7.03289 6.90301 6.80762 7.18461 6.80762 7.4662V18.6174C6.80762 18.9553 7.08921 19.1806 7.37081 19.1806H10.1305C10.4684 19.1806 10.6936 18.899 10.6936 18.6174V12.6476C10.75 11.8591 11.1442 10.0569 12.8901 10.0569C15.1429 10.0569 14.9176 12.7039 14.9176 13.436V18.6174C14.9176 18.9553 15.1992 19.1806 15.4808 19.1806H18.2967C18.6347 19.1806 18.8599 18.899 18.8599 18.6174V13.2671C18.8599 10.9017 18.8599 6.67773 14.3544 6.67773Z" fill="white"/>
<path d="M3.14691 5.83289C4.5466 5.83289 5.68128 4.69822 5.68128 3.29853C5.68128 1.89883 4.5466 0.76416 3.14691 0.76416C1.74722 0.76416 0.612549 1.89883 0.612549 3.29853C0.612549 4.69822 1.74722 5.83289 3.14691 5.83289Z" fill="white"/>
<path d="M4.4423 6.90283H1.79529C1.45738 6.90283 1.17578 7.18443 1.17578 7.52234V18.6172C1.17578 18.9551 1.45738 19.2367 1.79529 19.2367H4.4423C4.78021 19.2367 5.06181 18.9551 5.06181 18.6172V7.52234C5.06181 7.12811 4.78021 6.90283 4.4423 6.90283Z" fill="white"/>
</svg>
