<svg width="17" height="25" viewBox="0 0 17 25" fill="none" xmlns="http://www.w3.org/2000/svg">
<path fill-rule="evenodd" clip-rule="evenodd" d="M0 8.33335C0 3.73843 3.69283 0 8.23171 0C12.7706 0 16.4634 3.73843 16.4634 8.3333C16.4634 9.71269 16.1227 11.0804 15.4776 12.2894L8.68186 24.7314C8.59142 24.8973 8.41909 25 8.23171 25C8.04432 25 7.87199 24.8973 7.78155 24.7314L0.988285 12.2935C0.340667 11.0804 0 9.71274 0 8.33335ZM4.11586 8.33326C4.11586 10.6307 5.96225 12.4999 8.23169 12.4999C10.5011 12.4999 12.3475 10.6307 12.3475 8.33326C12.3475 6.0358 10.5011 4.16661 8.23169 4.16661C5.96225 4.16661 4.11586 6.0358 4.11586 8.33326Z" fill="white"/>
</svg>
