<svg width="26" height="26" viewBox="0 0 26 26" fill="none" xmlns="http://www.w3.org/2000/svg">
<path d="M2.66684 0.0952148C1.35136 0.0952148 0.285889 1.16069 0.285889 2.47617V3.66664V4.85712V19.1428C0.285889 20.4559 1.35375 21.5238 2.66684 21.5238H15.9667L13.5857 19.1428H2.66684V4.85712H19.3335L19.3312 13.3951L21.7145 15.776V4.85712V3.66664V2.47617C21.7145 1.16069 20.649 0.0952148 19.3335 0.0952148H2.66684ZM5.04779 8.42855V10.8095H7.42875V8.42855H5.04779ZM9.8097 8.42855V10.8095H16.9526V8.42855H9.8097ZM5.04779 13.1905V15.5714H7.42875V13.1905H5.04779ZM9.8097 13.1905V15.5714H12.1907V13.1905H9.8097ZM14.5716 14.3809V16.7619L20.6984 22.8886L23.0793 20.5077L16.9526 14.3809H14.5716ZM23.921 21.3494L21.5401 23.7304L22.7306 24.9208C22.9627 25.153 23.3401 25.153 23.5723 24.9208L25.1115 23.3816C25.3436 23.1482 25.3436 22.772 25.1115 22.5399L23.921 21.3494Z" fill="white"/>
</svg>
