<svg width="22" height="30" viewBox="0 0 22 30" fill="none" xmlns="http://www.w3.org/2000/svg">
<path d="M10.9202 21.4184C9.77741 21.1792 8.59478 21.0463 7.47859 20.7008C2.80122 19.2258 -0.268301 14.4687 0.24993 9.59205C0.728297 5.114 3.69152 1.55282 7.93038 0.383478C13.9233 -1.27752 20.0224 2.62915 20.9659 8.78148C21.4974 12.2098 20.8862 15.5318 19.3846 18.6146C15.9696 25.6306 10.3222 29.3114 2.48231 29.5506C1.12694 29.5905 0.143626 28.6204 0.0107462 27.1986C-0.108846 25.8167 0.781449 24.541 2.09696 24.3151C2.8278 24.1955 3.58521 24.2221 4.32934 24.1291C6.81419 23.8235 9.00671 22.88 10.9202 21.4184Z" fill="#56B7E2"/>
</svg>
