<svg width="16" height="23" viewBox="0 0 16 23" fill="none" xmlns="http://www.w3.org/2000/svg">
<path d="M8.21809 16.6586C7.35809 16.4786 6.46809 16.3786 5.62809 16.1186C2.10809 15.0086 -0.201913 11.4286 0.188087 7.75863C0.548087 4.38863 2.77809 1.70863 5.96809 0.828629C10.4781 -0.421371 15.0681 2.51863 15.7781 7.14863C16.1781 9.72863 15.7181 12.2286 14.5881 14.5486C12.0181 19.8286 7.76809 22.5986 1.86809 22.7786C0.848087 22.8086 0.108087 22.0786 0.00808719 21.0086C-0.0819128 19.9686 0.588087 19.0086 1.57809 18.8386C2.12809 18.7486 2.69809 18.7686 3.25809 18.6986C5.12809 18.4686 6.77809 17.7586 8.21809 16.6586Z" fill="white"/>
</svg>
