<svg width="18" height="17" viewBox="0 0 18 17" fill="none" xmlns="http://www.w3.org/2000/svg">
<path d="M8.74862 0C9.11107 0.0010341 9.29514 0.147359 9.42181 0.405883C10.1715 1.93531 10.9285 3.46112 11.6792 4.99055C11.7351 5.10481 11.7971 5.16117 11.9331 5.1803C13.6078 5.41711 15.281 5.66374 16.9547 5.90624C17.4262 5.97449 17.6811 6.22422 17.6175 6.61304C17.5927 6.76505 17.4976 6.92999 17.3859 7.04012C16.1672 8.24278 14.9397 9.43664 13.7112 10.6295C13.6197 10.7184 13.5877 10.7965 13.6109 10.9309C13.9082 12.6351 14.1962 14.3403 14.4884 16.0455C14.5328 16.3056 14.461 16.5228 14.25 16.6784C14.0313 16.8397 13.7966 16.8366 13.5572 16.7105C12.0381 15.9111 10.5174 15.1154 9.00094 14.3108C8.86237 14.2374 8.76309 14.2441 8.62918 14.315C7.12922 15.1092 5.62513 15.8956 4.12414 16.6872C3.90543 16.8025 3.68982 16.849 3.46077 16.727C3.22138 16.5988 3.09522 16.3542 3.14227 16.0776C3.35839 14.7984 3.57814 13.5198 3.79685 12.2411C3.87544 11.783 3.96024 11.3259 4.02745 10.8663C4.03779 10.797 3.98454 10.6962 3.92973 10.6424C2.79016 9.52454 1.64645 8.41185 0.503772 7.29813C0.401914 7.19886 0.300572 7.09907 0.199231 6.99979C0.0151618 6.82038 -0.0422305 6.60115 0.0306733 6.36072C0.104094 6.11823 0.278856 5.97139 0.532727 5.93416C1.49082 5.793 2.44891 5.65392 3.407 5.51432C4.16706 5.40367 4.9266 5.28888 5.68769 5.18496C5.82575 5.16634 5.89762 5.1105 5.95863 4.98641C6.70835 3.45698 7.46582 1.93117 8.21554 0.401746C8.34222 0.141671 8.52939 0 8.74862 0Z" fill="#56B7E2"/>
</svg>
