<svg width="26" height="25" viewBox="0 0 26 25" fill="none" xmlns="http://www.w3.org/2000/svg">
<path d="M13.1829 0.779785C13.7006 0.781262 13.9635 0.990266 14.1445 1.35953C15.2153 3.5441 16.2966 5.7235 17.3689 7.90807C17.4487 8.07128 17.5373 8.15178 17.7315 8.17911C20.1236 8.51735 22.5135 8.86963 24.9041 9.216C25.5776 9.31349 25.9417 9.6702 25.8509 10.2256C25.8155 10.4427 25.6796 10.6783 25.52 10.8356C23.7793 12.5534 22.0261 14.2587 20.2713 15.9625C20.1406 16.0895 20.0948 16.201 20.128 16.393C20.5527 18.8272 20.9641 21.2629 21.3813 23.6986C21.4448 24.07 21.3422 24.3802 21.0409 24.6025C20.7285 24.8329 20.3932 24.8285 20.0512 24.6483C17.8814 23.5065 15.7094 22.3699 13.5433 21.2208C13.3454 21.1159 13.2036 21.1255 13.0123 21.2267C10.8698 22.3611 8.72146 23.4844 6.57751 24.6151C6.26512 24.7798 5.95715 24.8462 5.62998 24.6719C5.28804 24.4888 5.10784 24.1395 5.17505 23.7443C5.48375 21.9172 5.79763 20.0908 6.11003 18.2645C6.22228 17.6101 6.3434 16.9573 6.43941 16.3007C6.45418 16.2017 6.37811 16.0577 6.29983 15.9809C4.67211 14.3842 3.03848 12.7949 1.40633 11.2041C1.26084 11.0623 1.11609 10.9198 0.97134 10.778C0.708424 10.5217 0.626447 10.2086 0.73058 9.86517C0.835451 9.5188 1.08507 9.30906 1.44769 9.25588C2.81619 9.05426 4.18468 8.8556 5.55317 8.6562C6.63881 8.49815 7.72371 8.3342 8.81083 8.18575C9.00801 8.15917 9.11067 8.07941 9.19781 7.90216C10.2687 5.71759 11.3506 3.53819 12.4215 1.35362C12.6024 0.982142 12.8698 0.779785 13.1829 0.779785Z" fill="white"/>
</svg>
