<svg width="74" height="25" viewBox="0 0 74 25" fill="none" xmlns="http://www.w3.org/2000/svg">
<path d="M73.8132 5.05574V0.680176H54.0818C53.7668 0.680176 53.4748 0.736509 53.2058 0.849174C52.9356 0.96184 52.7023 1.11819 52.5068 1.32053C52.3102 1.52287 52.1562 1.75855 52.0435 2.02871C51.9308 2.29888 51.8745 2.58514 51.8745 2.88865V5.05689H73.8132V5.05574Z" fill="white"/>
<path d="M15.2501 20.4622H10.1089C9.25582 20.4622 8.4775 20.3242 7.77507 20.0494C7.07263 19.7735 6.46907 19.3861 5.96322 18.8871C5.45738 18.3871 5.06765 17.7835 4.79173 17.0753C4.51697 16.3671 4.37901 15.5865 4.37901 14.7335V10.7902C4.37901 9.92564 4.51697 9.14158 4.79173 8.43915C5.06765 7.73671 5.45738 7.13545 5.96322 6.6365C6.46907 6.1364 7.07263 5.74897 7.77507 5.47421C8.4775 5.19829 9.25467 5.06148 10.1089 5.06148H19.7636V18.072L24.1449 17.9571V2.8875C24.1449 2.5725 24.0886 2.28049 23.9759 2.01147C23.8632 1.7413 23.7092 1.50907 23.5126 1.31248C23.316 1.11589 23.0826 0.96184 22.8136 0.849174C22.5446 0.736509 22.2526 0.680176 21.9376 0.680176H10.11C8.66145 0.680176 7.31866 0.933098 6.08279 1.43894C4.84692 1.94479 3.78004 2.64377 2.88102 3.53705C1.98199 4.43033 1.27726 5.49375 0.766813 6.72962C0.25637 7.96549 0 9.31863 0 10.7902V14.7335C0 16.1935 0.25522 17.5444 0.766813 18.786C1.27841 20.0276 1.98314 21.0945 2.88102 21.9877C3.78004 22.881 4.84692 23.58 6.08279 24.0859C7.31866 24.5917 8.6603 24.8446 10.11 24.8446H15.2512V20.4622H15.2501Z" fill="white"/>
<path d="M50.4007 17.7319C50.4007 18.5976 50.2915 19.3748 50.0719 20.0657C49.8523 20.7566 49.5637 21.366 49.2039 21.8937C48.8441 22.4213 48.4233 22.8709 47.9404 23.2422C47.4576 23.6124 46.9575 23.9159 46.4413 24.1516C45.924 24.3872 45.3997 24.562 44.8663 24.6735C44.3328 24.7862 43.8304 24.8425 43.3579 24.8425H12.9624V20.4612H43.3579C44.2006 20.4612 44.8548 20.214 45.3204 19.7197C45.786 19.2253 46.0194 18.5631 46.0194 17.7319C46.0194 17.3273 45.9573 16.9571 45.8343 16.6202C45.7101 16.2834 45.5331 15.9914 45.3031 15.7442C45.0732 15.497 44.7916 15.3062 44.4605 15.1717C44.1294 15.0372 43.7615 14.9693 43.3568 14.9693H33.2801C32.5719 14.9693 31.8086 14.8429 30.9889 14.5899C30.1692 14.337 29.4081 13.93 28.7057 13.3679C28.0032 12.8068 27.4192 12.0699 26.9536 11.1605C26.4869 10.2512 26.2546 9.13831 26.2546 7.82426C26.2546 6.51021 26.488 5.4008 26.9536 4.49603C27.4192 3.59241 28.0032 2.85663 28.7057 2.28871C29.4081 1.72193 30.1692 1.31151 30.9889 1.05858C31.8086 0.80566 32.5731 0.679199 33.2801 0.679199H68.833V5.06051H33.2813C32.4501 5.06051 31.8005 5.31343 31.3349 5.81927C30.8682 6.32512 30.6359 6.99307 30.6359 7.82426C30.6359 8.66695 30.8693 9.3326 31.3349 9.8212C31.8005 10.3098 32.4501 10.5547 33.2813 10.5547H43.3579H43.3913C43.8626 10.5662 44.3627 10.6306 44.8904 10.749C45.4181 10.8674 45.9435 11.0502 46.4654 11.2962C46.9874 11.5434 47.4852 11.8549 47.9565 12.2309C48.4279 12.6068 48.8464 13.0598 49.2119 13.5874C49.5764 14.1151 49.8661 14.7221 50.0799 15.4073C50.2938 16.0925 50.4007 16.8674 50.4007 17.7319Z" fill="white"/>
<path d="M71.8415 10.5547H58.0078V14.9693H71.8415V10.5547Z" fill="white"/>
<path d="M56.7111 20.0073C56.4076 19.7038 56.2558 19.2657 56.2558 18.6932V10.4985H51.8745V18.6932C51.8745 19.8279 52.0791 20.7856 52.4896 21.5662C52.9 22.3468 53.4104 22.9814 54.0232 23.47C54.6348 23.9586 55.3005 24.3104 56.0201 24.5231C56.7387 24.7369 57.402 24.8438 58.0079 24.8438H73.8132V20.4625H58.0424C57.4572 20.4625 57.0134 20.3108 56.7111 20.0073Z" fill="white"/>
</svg>
